<svg width="172" height="120" viewBox="0 0 172 120" fill="none" xmlns="http://www.w3.org/2000/svg">
<mask id="mask0_13671_3973" style="mask-type:luminance" maskUnits="userSpaceOnUse" x="0" y="0" width="172" height="120">
<path d="M172 0H0V120H172V0Z" fill="white"/>
</mask>
<g mask="url(#mask0_13671_3973)">
<path d="M111.556 101.797L15.1609 102.69C10.6589 102.69 6.95719 98.8723 6.73284 94.0123L4.11545 35.7148C3.88362 30.5098 7.71999 26.1523 12.5435 26.1523H108.273C112.775 26.1523 115.168 28.1773 115.392 33.0373L118.017 94.7473C118.249 99.9523 116.387 101.812 111.563 101.812L111.556 101.797Z" fill="#069D48"/>
<path d="M110.322 98.5121H18.2572C14.8396 98.5121 12.0203 95.6846 11.8558 92.0921L9.28325 36.3671C9.10377 32.5121 12.0203 29.2871 15.6846 29.2871H107.608C110.27 29.2871 112.461 31.4846 112.588 34.2821L115.303 93.0071C115.445 95.9996 113.171 98.5121 110.322 98.5121Z" fill="#F9F6F2"/>
<path d="M138.455 80.0333C136.952 82.0733 135.591 84.8408 132.996 86.1458C132.921 86.1908 132.727 86.2883 132.66 86.3258C132.585 86.3708 132.181 86.5433 132.016 86.5808C131.127 86.7908 130.678 86.6558 130.349 86.6033C128.584 86.1458 127.156 84.9008 125.862 83.9333C122.714 81.4358 119.767 78.6083 116.828 76.0208L119.632 72.4883C121.308 73.7783 122.781 75.0008 124.344 76.2308C126.662 77.9783 129.01 80.0483 131.545 81.2558C131.575 81.2633 131.568 81.2558 131.486 81.2333C131.396 81.2333 131.201 81.1208 130.551 81.2708C130.461 81.2933 130.356 81.3308 130.267 81.3683C130.192 81.3983 130.027 81.4883 130.08 81.4583C130.184 81.3833 130.311 81.3158 130.409 81.2333C131.792 80.1533 132.405 78.2033 133.55 76.5908L138.448 80.0483L138.455 80.0333Z" fill="#FDBE9C"/>
<path d="M167.424 102.689L167.072 76.4316L161.396 77.0166L164.059 102.689H167.424Z" fill="#FDBE9C"/>
<path d="M151.803 59.3088C151.803 59.3088 156.132 59.1513 157.366 58.9338C159.281 58.5963 161.681 57.3663 161.95 55.4313C162.594 50.9163 159.67 39.6738 159.67 39.6738L152.184 40.8063L151.795 59.3088H151.803Z" fill="#6B4132"/>
<path d="M147.998 59.309L143.72 59.1365C141.783 58.9865 139.218 58.439 138.261 56.7365C137.05 54.569 137.588 42.2315 137.588 42.2315L145.119 41.459L147.998 59.309Z" fill="#6B4132"/>
<path d="M152.204 51.3516L145.706 56.3391C145.706 56.3391 145.975 58.7091 145.631 59.3091" fill="#F4937C"/>
<path d="M150.86 42.5786L147.57 46.2236C145.438 48.5861 141.804 48.7661 139.448 46.6136C137.1 44.4686 136.921 40.8086 139.059 38.4461L142.35 34.8011C144.481 32.4386 148.116 32.2586 150.471 34.4111C152.819 36.5561 152.999 40.2161 150.86 42.5786Z" fill="#6B4132"/>
<path d="M152.207 50.7676V58.9426L145.746 56.7451L145.873 53.9926L152.207 50.7676Z" fill="#F4937C"/>
<path d="M145.422 56.3289C142.312 56.2466 139.852 53.6457 139.934 50.5268L140.125 43.2619C140.207 40.1429 142.8 37.6756 145.91 37.7579L147.039 37.7877C150.149 37.8699 152.609 40.4708 152.527 43.5897L152.365 49.7226C152.268 53.4638 149.152 56.4275 145.422 56.3289Z" fill="#FDBE9C"/>
<path d="M146.111 46.7296C146.121 46.3156 145.909 45.9741 145.636 45.9669C145.364 45.9598 145.135 46.2896 145.123 46.7037C145.113 47.1178 145.325 47.4593 145.598 47.4664C145.87 47.4736 146.1 47.1437 146.111 46.7296Z" fill="#6B4132"/>
<path d="M145.752 46.171C146.261 46.3285 146.62 46.6135 146.702 46.351C146.784 46.0885 146.433 45.751 145.917 45.5935C145.401 45.436 144.93 45.5185 144.847 45.781C144.765 46.0435 145.236 46.0135 145.752 46.171Z" fill="#6B4132"/>
<path d="M141.505 47.7312C141.771 47.673 141.916 47.2977 141.828 46.893C141.74 46.4883 141.453 46.2073 141.187 46.2654C140.92 46.3236 140.776 46.6989 140.863 47.1036C140.952 47.5083 141.239 47.7893 141.505 47.7312Z" fill="#6B4132"/>
<path d="M141.102 46.4981C140.63 46.7531 140.331 47.0981 140.204 46.8581C140.077 46.6181 140.361 46.2206 140.832 45.9656C141.303 45.7106 141.79 45.7031 141.917 45.9506C142.044 46.1981 141.573 46.2506 141.102 46.5056V46.4981Z" fill="#6B4132"/>
<path d="M145.028 52.0192C145.028 52.0192 142.867 52.7617 141.805 51.8242" stroke="#F4937C" stroke-width="0.645" stroke-miterlimit="10" stroke-linecap="round"/>
<path d="M143.557 49.4773C143.557 49.4773 141.71 49.6498 141.545 49.0273C141.231 49.3198 141.298 49.8373 141.986 50.0698C142.3 50.1748 143.34 50.0548 143.557 49.4773Z" fill="#F4937C"/>
<path d="M147.039 43.8147L151.272 46.2747C154.024 47.8722 157.539 46.9272 159.124 44.1597C160.709 41.3922 159.767 37.8597 157.023 36.2622L152.79 33.8022C150.038 32.2047 146.523 33.1497 144.938 35.9172C143.352 38.6847 144.295 42.2172 147.039 43.8147Z" fill="#6B4132"/>
<path d="M153.097 51.3819C154.286 51.3819 155.251 50.4115 155.251 49.2144C155.251 48.0173 154.286 47.0469 153.097 47.0469C151.907 47.0469 150.943 48.0173 150.943 49.2144C150.943 50.4115 151.907 51.3819 153.097 51.3819Z" fill="#FDBE9C"/>
<path d="M133.025 74.2505H164.381V66.0755C164.381 64.403 163.215 62.9555 161.592 62.603L152.588 60.668H145.589L139.554 62.108C137.392 62.468 135.65 64.073 135.097 66.203L133.018 74.243L133.025 74.2505Z" fill="#069D48"/>
<path d="M152.788 51.9376C153.111 51.9376 153.372 51.6757 153.372 51.3526C153.372 51.0295 153.111 50.7676 152.788 50.7676C152.467 50.7676 152.205 51.0295 152.205 51.3526C152.205 51.6757 152.467 51.9376 152.788 51.9376Z" fill="white"/>
<path d="M152.206 58.9416C152.206 58.9416 152.363 60.0591 152.587 60.4191C152.587 60.4191 150.456 66.1641 147.42 65.9766C147.42 65.9766 145.244 65.3391 145.632 60.1866C145.632 60.1866 145.752 58.7691 145.745 56.7441L152.206 58.9416Z" fill="#FDBE9C"/>
<path d="M163.821 64.1621C163.821 64.1621 167.067 72.3371 168.465 78.1346C168.465 78.5096 167.867 78.7121 167.433 78.9071C165.07 79.9796 163.111 80.0621 162.064 79.8971C160.71 79.6871 160.269 78.9446 160.269 78.9446L159.902 73.4471L163.828 64.1621H163.821Z" fill="#069D48"/>
<path d="M136.602 95.4454H161.16V72.3379H136.602V95.4454Z" fill="#069D48"/>
<path d="M152.432 47.1587C152.432 47.1587 151.804 47.4962 151.774 47.9387C151.744 48.3812 151.101 48.6737 151.056 47.9387C151.011 47.2037 150.316 45.9062 150.054 45.5687C149.792 45.2312 152.656 45.4112 152.656 45.4112L152.44 47.1587H152.432Z" fill="#6B4132"/>
<path d="M147.45 45.315C147.45 45.315 146.926 44.7975 146.059 44.5275C145.55 44.37 144.885 44.4225 144.885 44.4225" stroke="#6B4132" stroke-width="0.48" stroke-miterlimit="10" stroke-linecap="round"/>
<path d="M142.447 44.2662C142.447 44.2662 141.73 44.1312 140.862 44.4012C140.354 44.5587 139.83 44.9787 139.83 44.9787" stroke="#6B4132" stroke-width="0.48" stroke-miterlimit="10" stroke-linecap="round"/>
<path d="M162.93 102.69C162.145 93.128 161.158 81.6305 161.158 81.6305L159.894 62.2355L153.373 60.668C153.373 60.668 150.853 67.808 147.413 67.808C143.973 67.808 144.765 60.863 144.765 60.863L140.114 61.778C140.114 61.778 138.85 65.2505 138.603 66.6905C137.437 73.538 135.806 90.6905 134.535 102.698H162.923L162.93 102.69Z" fill="#685959"/>
<path d="M164.06 102.688C163.02 95.8409 161.6 86.7734 161.6 86.7734L162.931 102.688H164.06Z" fill="#3E3837"/>
<path d="M140.152 75.1488H145.282V71.9238H140.152V75.1488Z" fill="white"/>
<path d="M133.027 74.2491L131.875 78.4266C131.875 78.4266 133.393 80.6241 136.983 79.3566L137.671 73.0566L133.034 74.2491H133.027Z" fill="#069D48"/>
<path d="M147.422 65.9774L150.585 68.1074C150.585 68.1074 154.518 65.1149 153.905 60.8024L152.582 60.4199C152.582 60.4199 151.617 64.5149 147.414 65.9774H147.422Z" fill="#069D48"/>
<path d="M145.591 60.668L144.462 60.923C144.462 60.923 143.011 65.723 144.634 67.8155L147.423 65.978C147.423 65.978 145.427 64.343 145.591 60.668Z" fill="#069D48"/>
<path d="M149.209 67.1766L147.421 65.9766L145.746 67.0791C145.746 67.0791 146.771 68.9991 149.209 67.1766Z" fill="#C8FFE0"/>
<path d="M105.417 64.889L17.8393 64.2665C16.6727 64.259 15.723 63.2765 15.708 62.054L15.551 51.2465C15.536 49.9865 16.5007 48.959 17.6972 48.959L105.432 49.304C106.591 49.304 107.533 50.2715 107.571 51.479V62.564C107.608 63.839 106.628 64.8965 105.41 64.889H105.417Z" fill="white"/>
<path d="M37.282 64.7991H35.9434L35.7266 48.8691H37.0577L37.282 64.7991Z" fill="#F9F6F2"/>
<path d="M58.5125 64.7991H57.1738L56.957 48.8691H58.2882L58.5125 64.7991Z" fill="#F9F6F2"/>
<path d="M79.9129 64.7991H78.5818L78.3574 48.8691H79.696L79.9129 64.7991Z" fill="#F9F6F2"/>
<path d="M25.4651 57.779H24.8519V58.7765H24.1415V57.779H22.0625V57.2165L24.1415 54.209H24.8519V57.179H25.4651V57.7865V57.779ZM24.1415 57.1715V56.0315C24.1415 55.6265 24.1489 55.289 24.1714 55.034H24.1489C24.0891 55.169 23.9994 55.334 23.8722 55.5365L22.743 57.179H24.1415V57.1715Z" fill="#666666"/>
<path d="M28.9362 56.4901C28.9362 57.2776 28.809 57.8701 28.5548 58.2526C28.3005 58.6351 27.9117 58.8301 27.3882 58.8301C26.8647 58.8301 26.4983 58.6351 26.2365 58.2376C25.9748 57.8401 25.8477 57.2626 25.8477 56.4901C25.8477 55.6876 25.9748 55.0951 26.229 54.7126C26.4833 54.3301 26.8722 54.1426 27.3882 54.1426C27.9042 54.1426 28.2781 54.3451 28.5398 54.7426C28.8016 55.1401 28.9287 55.7251 28.9287 56.4901H28.9362ZM26.588 56.4901C26.588 57.1126 26.6553 57.5551 26.7824 57.8176C26.9096 58.0801 27.1115 58.2151 27.3957 58.2151C27.6798 58.2151 27.8817 58.0801 28.0089 57.8101C28.136 57.5401 28.2033 57.0976 28.2033 56.4826C28.2033 55.8676 28.136 55.4326 28.0089 55.1551C27.8817 54.8851 27.6724 54.7426 27.3957 54.7426C27.119 54.7426 26.9096 54.8776 26.7824 55.1476C26.6553 55.4176 26.588 55.8601 26.588 56.4826V56.4901Z" fill="#666666"/>
<path d="M45.4426 55.9877C45.8988 55.9877 46.2652 56.1077 46.527 56.3552C46.7887 56.6027 46.9308 56.9327 46.9308 57.3527C46.9308 57.8402 46.7812 58.2227 46.4746 58.4927C46.168 58.7627 45.7418 58.9052 45.1809 58.9052C44.6724 58.9052 44.276 58.8227 43.9844 58.6577V57.9977C44.1489 58.0952 44.3433 58.1702 44.5602 58.2152C44.7771 58.2677 44.979 58.2902 45.1659 58.2902C45.495 58.2902 45.7492 58.2152 45.9212 58.0727C46.0932 57.9227 46.1755 57.7127 46.1755 57.4277C46.1755 56.8802 45.8315 56.6102 45.136 56.6102C45.0388 56.6102 44.9192 56.6177 44.7771 56.6402C44.635 56.6627 44.5079 56.6852 44.4032 56.7077L44.0741 56.5127L44.2461 54.2852H46.6092V54.9377H44.8892L44.7845 56.0627C44.8593 56.0477 44.9491 56.0327 45.0538 56.0177C45.1585 56.0027 45.2856 55.9952 45.4352 55.9952L45.4426 55.9877Z" fill="#666666"/>
<path d="M50.6159 56.5565C50.6159 57.344 50.4887 57.9365 50.2345 58.319C49.9802 58.7015 49.5913 58.8965 49.0679 58.8965C48.5444 58.8965 48.178 58.7015 47.9162 58.304C47.6545 57.9065 47.5273 57.329 47.5273 56.5565C47.5273 55.754 47.6545 55.1615 47.9087 54.779C48.163 54.3965 48.5519 54.209 49.0679 54.209C49.5839 54.209 49.9578 54.4115 50.2195 54.809C50.4813 55.2065 50.6084 55.7915 50.6084 56.5565H50.6159ZM48.2677 56.5565C48.2677 57.179 48.335 57.6215 48.4621 57.884C48.5893 58.1465 48.7912 58.2815 49.0753 58.2815C49.3595 58.2815 49.5614 58.1465 49.6886 57.8765C49.8157 57.6065 49.883 57.164 49.883 56.549C49.883 55.934 49.8157 55.499 49.6886 55.2215C49.5614 54.9515 49.352 54.809 49.0753 54.809C48.7986 54.809 48.5893 54.944 48.4621 55.214C48.335 55.484 48.2677 55.9265 48.2677 56.549V56.5565Z" fill="#666666"/>
<path d="M17.457 70.3418H18.3843C18.8181 70.3418 19.1322 70.4093 19.3341 70.5368C19.5285 70.6643 19.6257 70.8743 19.6257 71.1593C19.6257 71.3543 19.5734 71.5193 19.4612 71.6393C19.349 71.7668 19.192 71.8493 18.9826 71.8868V71.9093C19.4836 71.9918 19.7304 72.2543 19.7304 72.6968C19.7304 72.9893 19.6332 73.2218 19.4313 73.3868C19.2294 73.5518 18.9527 73.6343 18.6012 73.6343H17.457V70.3418ZM17.8384 71.7518H18.4666C18.7358 71.7518 18.9302 71.7068 19.0499 71.6243C19.1696 71.5418 19.2294 71.3993 19.2294 71.1968C19.2294 71.0093 19.1621 70.8818 19.0349 70.7993C18.9003 70.7168 18.6909 70.6793 18.4068 70.6793H17.8459V71.7593L17.8384 71.7518ZM17.8384 72.0743V73.3043H18.5264C18.7882 73.3043 18.9901 73.2518 19.1247 73.1468C19.2593 73.0418 19.3266 72.8843 19.3266 72.6668C19.3266 72.4643 19.2593 72.3143 19.1247 72.2168C18.9901 72.1193 18.7807 72.0743 18.4965 72.0743H17.8459H17.8384Z" fill="#494848"/>
<path d="M22.0469 71.4905H21.2467V73.643H20.8728V71.4905H20.0801V71.168H22.0469V71.4905Z" fill="#494848"/>
<path d="M22.9315 73.1016L22.9614 73.1541C22.924 73.3041 22.8642 73.4766 22.7894 73.6791C22.7147 73.8816 22.6399 74.0616 22.5576 74.2341H22.2734C22.3108 74.0766 22.3557 73.8816 22.408 73.6566C22.4604 73.4316 22.4903 73.2441 22.5127 73.1016H22.924H22.9315Z" fill="#494848"/>
<path d="M26.8487 73.6419H24.6875V73.3194L25.555 72.4494C25.8167 72.1794 25.9887 71.9919 26.0785 71.8794C26.1682 71.7669 26.228 71.6544 26.2654 71.5419C26.3103 71.4369 26.3252 71.3169 26.3252 71.1894C26.3252 71.0169 26.2729 70.8744 26.1682 70.7694C26.0635 70.6644 25.9139 70.6119 25.727 70.6119C25.5924 70.6119 25.4578 70.6344 25.3381 70.6794C25.2185 70.7244 25.0764 70.8069 24.9268 70.9269L24.7324 70.6719C25.0315 70.4169 25.368 70.2969 25.7195 70.2969C26.0261 70.2969 26.2729 70.3794 26.4449 70.5369C26.6169 70.6944 26.7066 70.9119 26.7066 71.1744C26.7066 71.3844 26.6468 71.5869 26.5346 71.7969C26.4225 72.0069 26.1981 72.2619 25.8765 72.5694L25.1586 73.2744V73.2894H26.8487V73.6344V73.6419Z" fill="#494848"/>
<path d="M29.4984 71.9916C29.4984 72.5616 29.4087 72.9891 29.2292 73.2666C29.0497 73.5441 28.773 73.6866 28.4066 73.6866C28.0402 73.6866 27.7859 73.5441 27.599 73.2516C27.412 72.9591 27.3223 72.5391 27.3223 71.9841C27.3223 71.4291 27.412 70.9866 27.5915 70.7091C27.771 70.4316 28.0402 70.2891 28.4066 70.2891C28.773 70.2891 29.0348 70.4316 29.2217 70.7241C29.4087 71.0166 29.4984 71.4366 29.4984 71.9841V71.9916ZM27.7037 71.9916C27.7037 72.4716 27.7635 72.8166 27.8757 73.0416C27.9878 73.2591 28.1673 73.3716 28.4141 73.3716C28.6609 73.3716 28.8404 73.2591 28.9525 73.0416C29.0647 72.8241 29.117 72.4716 29.117 71.9991C29.117 71.5266 29.0647 71.1816 28.9525 70.9566C28.8404 70.7391 28.6609 70.6266 28.4141 70.6266C28.1673 70.6266 27.9878 70.7391 27.8757 70.9491C27.7635 71.1666 27.7037 71.5116 27.7037 71.9916Z" fill="#494848"/>
<path d="M32.3092 73.688C31.9503 73.688 31.6736 73.5755 31.4792 73.358C31.2847 73.1405 31.1875 72.8255 31.1875 72.4205C31.1875 72.0155 31.2847 71.6855 31.4866 71.4605C31.6885 71.2355 31.9652 71.123 32.3317 71.123C32.4513 71.123 32.571 71.138 32.6906 71.1605C32.8103 71.183 32.9 71.213 32.9673 71.2505L32.8552 71.5655C32.7729 71.5355 32.6832 71.5055 32.5859 71.483C32.4887 71.4605 32.399 71.453 32.3242 71.453C31.8232 71.453 31.5764 71.7755 31.5764 72.413C31.5764 72.713 31.6362 72.9455 31.7558 73.1105C31.8755 73.2755 32.0625 73.3505 32.3018 73.3505C32.5037 73.3505 32.7205 73.3055 32.9299 73.2155V73.5455C32.7654 73.628 32.556 73.673 32.3092 73.673V73.688Z" fill="#494848"/>
<path d="M34.551 73.6858C34.1846 73.6858 33.9004 73.5733 33.691 73.3483C33.4816 73.1233 33.377 72.8158 33.377 72.4183C33.377 72.0208 33.4742 71.7058 33.6686 71.4658C33.863 71.2333 34.1248 71.1133 34.4538 71.1133C34.7604 71.1133 35.0072 71.2183 35.1867 71.4208C35.3662 71.6233 35.4559 71.8933 35.4559 72.2233V72.4633H33.7583C33.7583 72.7558 33.8406 72.9733 33.9752 73.1233C34.1173 73.2733 34.3117 73.3483 34.5585 73.3483C34.8203 73.3483 35.0895 73.2958 35.3437 73.1833V73.5208C35.2091 73.5808 35.0895 73.6183 34.9698 73.6408C34.8502 73.6633 34.7081 73.6783 34.5436 73.6783L34.551 73.6858ZM34.4463 71.4358C34.2519 71.4358 34.0874 71.5033 33.9752 71.6308C33.8556 71.7583 33.7883 71.9383 33.7658 72.1633H35.0521C35.0521 71.9308 34.9997 71.7433 34.895 71.6233C34.7903 71.5033 34.6408 71.4358 34.4463 71.4358Z" fill="#494848"/>
<path d="M36.4657 71.168V72.203H37.8492V71.168H38.2231V73.6355H37.8492V72.518H36.4657V73.6355H36.0918V71.168H36.4657Z" fill="#494848"/>
<path d="M40.6758 71.4905H39.8756V73.643H39.5017V71.4905H38.709V71.168H40.6758V71.4905Z" fill="#494848"/>
<path d="M41.2814 73.643H40.8477L41.5581 72.6005C41.3711 72.5555 41.2216 72.473 41.1244 72.353C41.0271 72.233 40.9748 72.083 40.9748 71.8955C40.9748 71.6705 41.0496 71.4905 41.1991 71.363C41.3487 71.2355 41.5581 71.168 41.8348 71.168H42.9341V73.6355H42.5602V72.6455H41.9395L41.2964 73.6355L41.2814 73.643ZM41.3263 71.903C41.3263 72.188 41.5357 72.3305 41.947 72.3305H42.5452V71.498H41.8722C41.5132 71.498 41.3263 71.633 41.3263 71.903Z" fill="#494848"/>
<path d="M43.5918 72.1582C43.5918 71.6182 43.6741 71.1982 43.8311 70.8907C43.9881 70.5907 44.2424 70.3957 44.5864 70.3207C45.0127 70.2307 45.3941 70.1557 45.7156 70.0957L45.7829 70.4257C45.2594 70.5157 44.893 70.5832 44.6687 70.6357C44.4518 70.6882 44.2873 70.8007 44.1826 70.9882C44.0704 71.1757 44.0106 71.4232 44.0031 71.7457H44.033C44.1228 71.6182 44.2424 71.5207 44.392 71.4457C44.5415 71.3707 44.6911 71.3407 44.8556 71.3407C45.1548 71.3407 45.3941 71.4382 45.5661 71.6332C45.7381 71.8282 45.8203 72.1057 45.8203 72.4507C45.8203 72.8332 45.7231 73.1407 45.5287 73.3582C45.3342 73.5757 45.0575 73.6807 44.7061 73.6807C44.3546 73.6807 44.0854 73.5457 43.8909 73.2832C43.6965 73.0207 43.5993 72.6382 43.5993 72.1582H43.5918ZM44.736 73.3732C45.1921 73.3732 45.424 73.0807 45.424 72.4957C45.424 71.9107 45.2146 71.6557 44.8033 71.6557C44.6911 71.6557 44.5789 71.6782 44.4742 71.7232C44.3695 71.7682 44.2723 71.8357 44.1826 71.9107C44.0928 71.9857 44.0255 72.0682 43.9807 72.1507C43.9807 72.5482 44.0405 72.8482 44.1676 73.0507C44.2948 73.2607 44.4817 73.3582 44.7434 73.3582L44.736 73.3732Z" fill="#494848"/>
<path d="M47.6087 73.6884C47.4516 73.6884 47.3021 73.6584 47.1675 73.5984C47.0329 73.5384 46.9207 73.4484 46.8309 73.3209H46.801C46.816 73.4634 46.8309 73.6059 46.8309 73.7334V74.7534H46.457V71.1759H46.7636L46.816 71.5134H46.8309C46.9282 71.3784 47.0403 71.2809 47.1675 71.2209C47.2946 71.1609 47.4442 71.1309 47.6087 71.1309C47.9377 71.1309 48.1845 71.2434 48.364 71.4684C48.5435 71.6934 48.6332 72.0084 48.6332 72.4134C48.6332 72.8184 48.5435 73.1334 48.364 73.3584C48.1845 73.5834 47.9302 73.6959 47.6087 73.6959V73.6884ZM47.5563 71.4459C47.3021 71.4459 47.1226 71.5134 47.0104 71.6559C46.8982 71.7984 46.8384 72.0159 46.8384 72.3234V72.4059C46.8384 72.7509 46.8982 72.9984 47.0104 73.1484C47.1226 73.2984 47.3096 73.3734 47.5638 73.3734C47.7732 73.3734 47.9452 73.2834 48.0649 73.1109C48.1845 72.9384 48.2443 72.6984 48.2443 72.3984C48.2443 72.0984 48.1845 71.8509 48.0649 71.6859C47.9452 71.5209 47.7732 71.4384 47.5563 71.4384V71.4459Z" fill="#494848"/>
<path d="M49.4025 73.643H48.9688L49.6792 72.6005C49.4922 72.5555 49.3427 72.473 49.2454 72.353C49.1482 72.233 49.0959 72.083 49.0959 71.8955C49.0959 71.6705 49.1707 71.4905 49.3202 71.363C49.4698 71.2355 49.6792 71.168 49.9559 71.168H51.0552V73.6355H50.6813V72.6455H50.0606L49.4174 73.6355L49.4025 73.643ZM49.4474 71.903C49.4474 72.188 49.6568 72.3305 50.0681 72.3305H50.6663V71.498H49.9933C49.6343 71.498 49.4474 71.633 49.4474 71.903Z" fill="#494848"/>
<path d="M55.0354 71.7888C55.0354 71.9463 54.9906 72.0738 54.9008 72.1563C54.8111 72.2388 54.6765 72.2988 54.5119 72.3213V72.3438C54.7213 72.3738 54.8784 72.4338 54.9681 72.5313C55.0653 72.6288 55.1102 72.7563 55.1102 72.9213C55.1102 73.1538 55.0279 73.3263 54.8559 73.4538C54.6839 73.5813 54.4446 73.6413 54.1156 73.6413H53.0312V71.1738H54.1156C54.7288 71.1738 55.0354 71.3838 55.0354 71.7963V71.7888ZM54.669 71.8263C54.669 71.7063 54.6241 71.6238 54.5269 71.5713C54.4372 71.5188 54.2951 71.4963 54.1081 71.4963H53.4052V72.1938H54.0333C54.2652 72.1938 54.4297 72.1638 54.5194 72.1113C54.6092 72.0588 54.6614 71.9613 54.6614 71.8338L54.669 71.8263ZM54.7363 72.8988C54.7363 72.7638 54.6839 72.6663 54.5867 72.6063C54.4895 72.5463 54.3175 72.5163 54.0857 72.5163H53.4126V73.3263H54.1006C54.5343 73.3263 54.7437 73.1838 54.7437 72.8988H54.7363Z" fill="#494848"/>
<path d="M58.064 73.6421H57.6976V71.2946C57.6976 71.0996 57.6976 70.9121 57.7126 70.7396C57.6827 70.7696 57.6453 70.8071 57.6079 70.8371C57.5705 70.8671 57.391 71.0171 57.0694 71.2796L56.875 71.0246L57.7425 70.3496H58.0566V73.6421H58.064Z" fill="#494848"/>
<path d="M61.4737 73.6419H59.3125V73.3194L60.18 72.4494C60.4417 72.1794 60.6137 71.9919 60.7035 71.8794C60.7932 71.7669 60.853 71.6544 60.8904 71.5419C60.9353 71.4369 60.9502 71.3169 60.9502 71.1894C60.9502 71.0169 60.8979 70.8744 60.7932 70.7694C60.6885 70.6644 60.5389 70.6119 60.352 70.6119C60.2174 70.6119 60.0828 70.6344 59.9631 70.6794C59.8435 70.7244 59.7014 70.8069 59.5518 70.9269L59.3574 70.6719C59.6565 70.4169 59.993 70.2969 60.3445 70.2969C60.6511 70.2969 60.8979 70.3794 61.0699 70.5369C61.2419 70.6944 61.3316 70.9119 61.3316 71.1744C61.3316 71.3844 61.2718 71.5869 61.1596 71.7969C61.0475 72.0069 60.8231 72.2619 60.5015 72.5694L59.7836 73.2744V73.2894H61.4737V73.6344V73.6419Z" fill="#494848"/>
<path d="M62.0586 71.413C62.0586 71.2105 62.1483 71.1055 62.3203 71.1055C62.4923 71.1055 62.597 71.2105 62.597 71.413C62.597 71.5105 62.5746 71.5855 62.5222 71.638C62.4699 71.6905 62.4026 71.713 62.3203 71.713C62.2455 71.713 62.1782 71.6905 62.1334 71.6455C62.081 71.6005 62.0586 71.518 62.0586 71.413ZM62.0586 73.4005C62.0586 73.303 62.081 73.2205 62.1259 73.168C62.1708 73.1155 62.2381 73.093 62.3203 73.093C62.4026 73.093 62.4774 73.123 62.5222 73.168C62.5746 73.2205 62.597 73.2955 62.597 73.4005C62.597 73.5055 62.5746 73.573 62.5222 73.6255C62.4699 73.678 62.4026 73.7005 62.3203 73.7005C62.2455 73.7005 62.1782 73.678 62.1334 73.633C62.081 73.588 62.0586 73.5055 62.0586 73.4005Z" fill="#494848"/>
<path d="M65.3461 71.9916C65.3461 72.5616 65.2564 72.9891 65.0769 73.2666C64.8974 73.5441 64.6207 73.6866 64.2543 73.6866C63.8878 73.6866 63.6336 73.5441 63.4466 73.2516C63.2597 72.9591 63.1699 72.5391 63.1699 71.9841C63.1699 71.4291 63.2597 70.9866 63.4391 70.7091C63.6186 70.4316 63.8878 70.2891 64.2543 70.2891C64.6207 70.2891 64.8824 70.4316 65.0694 70.7241C65.2564 71.0166 65.3461 71.4366 65.3461 71.9841V71.9916ZM63.5513 71.9916C63.5513 72.4716 63.6111 72.8166 63.7233 73.0416C63.8355 73.2591 64.015 73.3716 64.2617 73.3716C64.5085 73.3716 64.688 73.2591 64.8002 73.0416C64.9124 72.8241 64.9647 72.4716 64.9647 71.9991C64.9647 71.5266 64.9124 71.1816 64.8002 70.9566C64.688 70.7391 64.5085 70.6266 64.2617 70.6266C64.015 70.6266 63.8355 70.7391 63.7233 70.9491C63.6111 71.1666 63.5513 71.5116 63.5513 71.9916Z" fill="#494848"/>
<path d="M67.9809 71.9916C67.9809 72.5616 67.8911 72.9891 67.7116 73.2666C67.5322 73.5516 67.2555 73.6866 66.889 73.6866C66.5226 73.6866 66.2683 73.5441 66.0814 73.2516C65.8944 72.9666 65.8047 72.5391 65.8047 71.9841C65.8047 71.4291 65.8944 70.9866 66.0739 70.7091C66.2534 70.4316 66.5226 70.2891 66.889 70.2891C67.2555 70.2891 67.5172 70.4316 67.7042 70.7241C67.8911 71.0166 67.9809 71.4366 67.9809 71.9841V71.9916ZM66.1861 71.9916C66.1861 72.4716 66.2459 72.8166 66.3581 73.0416C66.4703 73.2591 66.6497 73.3716 66.8965 73.3716C67.1433 73.3716 67.3228 73.2591 67.4349 73.0416C67.5471 72.8241 67.5995 72.4716 67.5995 71.9991C67.5995 71.5266 67.5471 71.1816 67.4349 70.9566C67.3228 70.7391 67.1433 70.6266 66.8965 70.6266C66.6497 70.6266 66.4703 70.7391 66.3581 70.9491C66.2459 71.1666 66.1861 71.5116 66.1861 71.9916Z" fill="#494848"/>
<path d="M20.4097 84.1653C20.0507 84.1653 19.774 84.2928 19.5646 84.5478C19.3627 84.8028 19.258 85.1553 19.258 85.6053C19.258 86.0553 19.3552 86.4303 19.5572 86.6703C19.7516 86.9103 20.0432 87.0303 20.4172 87.0303C20.5817 87.0303 20.7387 87.0153 20.8883 86.9853C21.0379 86.9553 21.1949 86.9103 21.3594 86.8578V87.3903C21.0603 87.5028 20.7238 87.5628 20.3424 87.5628C19.7815 87.5628 19.3552 87.3903 19.0561 87.0528C18.757 86.7153 18.6074 86.2278 18.6074 85.5978C18.6074 85.2003 18.6822 84.8553 18.8243 84.5553C18.9664 84.2553 19.1758 84.0303 19.4525 83.8728C19.7292 83.7153 20.0507 83.6328 20.4172 83.6328C20.806 83.6328 21.165 83.7153 21.494 83.8803L21.2697 84.3978C21.1426 84.3378 21.0079 84.2853 20.8584 84.2403C20.7088 84.1953 20.5667 84.1728 20.4097 84.1728V84.1653Z" fill="#494848"/>
<path d="M24.2757 84.6152V85.0952H23.341V87.5027H22.7278V85.0952H21.793V84.6152H24.2833H24.2757Z" fill="#494848"/>
<path d="M27.3858 86.057C27.3858 86.5295 27.2662 86.897 27.0269 87.1595C26.7876 87.422 26.451 87.557 26.0173 87.557C25.7481 87.557 25.5088 87.497 25.2994 87.377C25.09 87.257 24.9329 87.077 24.8208 86.852C24.7086 86.627 24.6562 86.357 24.6562 86.057C24.6562 85.592 24.7759 85.2245 25.0152 84.962C25.2545 84.6995 25.591 84.5645 26.0323 84.5645C26.4735 84.5645 26.7801 84.6995 27.0194 84.9695C27.2662 85.2395 27.3858 85.5995 27.3858 86.057ZM25.2844 86.057C25.2844 86.7245 25.5312 87.0545 26.0248 87.0545C26.5183 87.0545 26.7576 86.717 26.7576 86.057C26.7576 85.397 26.5109 85.067 26.0248 85.067C25.7705 85.067 25.5836 85.1495 25.4639 85.322C25.3517 85.4945 25.2919 85.7345 25.2919 86.057H25.2844Z" fill="#494848"/>
<path d="M28.6806 84.6133V86.0983C28.6806 86.2708 28.6657 86.5258 28.6358 86.8558L30.0865 84.6133H30.8344V87.5083H30.2436V86.0533C30.2436 85.9708 30.2436 85.8433 30.2585 85.6633C30.266 85.4833 30.2735 85.3558 30.281 85.2733L28.8377 87.5083H28.0898V84.6133H28.6731H28.6806Z" fill="#494848"/>
<path d="M33.3636 86.9174L33.401 86.7899C33.4758 86.5274 33.5356 86.3324 33.588 86.1899L34.2311 84.6074H35.0462V87.5024H34.4779V85.1699L34.433 85.3274C34.3582 85.6049 34.2909 85.8149 34.2311 85.9499L33.6029 87.5099H33.1393L32.5111 85.9424C32.4214 85.7174 32.3466 85.4624 32.2718 85.1774V87.5099H31.7109V84.6149H32.5186L33.1468 86.1449C33.1991 86.2874 33.2739 86.5424 33.3636 86.9174Z" fill="#494848"/>
<path d="M38.4796 86.057C38.4796 86.5295 38.3599 86.897 38.1206 87.1595C37.8813 87.422 37.5448 87.557 37.111 87.557C36.8418 87.557 36.6025 87.497 36.3931 87.377C36.1837 87.257 36.0267 87.077 35.9145 86.852C35.8023 86.627 35.75 86.357 35.75 86.057C35.75 85.592 35.8697 85.2245 36.109 84.962C36.3483 84.6995 36.6848 84.5645 37.126 84.5645C37.5672 84.5645 37.8738 84.6995 38.1131 84.9695C38.3599 85.2395 38.4796 85.5995 38.4796 86.057ZM36.3782 86.057C36.3782 86.7245 36.625 87.0545 37.1185 87.0545C37.6121 87.0545 37.8514 86.717 37.8514 86.057C37.8514 85.397 37.6046 85.067 37.1185 85.067C36.8643 85.067 36.6773 85.1495 36.5577 85.322C36.4455 85.4945 36.3857 85.7345 36.3857 86.057H36.3782Z" fill="#494848"/>
<path d="M40.3386 87.5547C39.9049 87.5547 39.5684 87.4272 39.344 87.1722C39.1197 86.9172 39 86.5497 39 86.0697C39 85.5897 39.1197 85.2072 39.359 84.9447C39.5983 84.6822 39.9423 84.5547 40.391 84.5547C40.6976 84.5547 40.9668 84.6147 41.2136 84.7272L41.0266 85.2222C40.7649 85.1247 40.5555 85.0722 40.3835 85.0722C39.8824 85.0722 39.6357 85.4022 39.6357 86.0697C39.6357 86.3922 39.6955 86.6397 39.8226 86.7972C39.9497 86.9622 40.1292 87.0447 40.3685 87.0447C40.6377 87.0447 40.8995 86.9772 41.1463 86.8422V87.3747C41.0341 87.4422 40.9219 87.4872 40.7948 87.5097C40.6677 87.5322 40.5181 87.5547 40.3461 87.5547H40.3386Z" fill="#494848"/>
<path d="M43.9886 84.6152V85.0952H43.0539V87.5027H42.4406V85.0952H41.5059V84.6152H43.9961H43.9886Z" fill="#494848"/>
<path d="M45.1562 85.7699H45.8816C46.6892 85.7699 47.0856 86.0474 47.0856 86.6099C47.0856 86.9024 46.9809 87.1274 46.779 87.2774C46.5771 87.4274 46.2704 87.5024 45.8816 87.5024H44.543V84.6074H45.1562V85.7624V85.7699ZM46.4724 86.6249C46.4724 86.4824 46.42 86.3774 46.3078 86.3249C46.1957 86.2649 46.0461 86.2424 45.8442 86.2424H45.1562V87.0599H45.8517C46.0536 87.0599 46.2031 87.0224 46.3153 86.9474C46.4275 86.8724 46.4724 86.7674 46.4724 86.6249Z" fill="#494848"/>
<path d="M19.3244 40.4471C19.3244 40.7696 19.2197 41.0321 19.0028 41.2346C18.7934 41.4371 18.4943 41.5721 18.1204 41.6246V41.6471C18.5541 41.6996 18.8832 41.8271 19.1075 42.0296C19.3319 42.2321 19.444 42.5021 19.444 42.8321C19.444 43.2896 19.2646 43.6496 18.9056 43.9121C18.5466 44.1746 18.0531 44.3021 17.4174 44.3021C16.7818 44.3021 16.2359 44.2121 15.8395 44.0321V43.3271C16.0564 43.4321 16.3032 43.5146 16.5724 43.5671C16.8416 43.6271 17.0884 43.6496 17.3127 43.6496C18.1802 43.6496 18.6139 43.3646 18.6139 42.7946C18.6139 42.5321 18.4868 42.3371 18.2251 42.1946C17.9633 42.0521 17.5819 41.9921 17.0734 41.9921H16.4826V41.3396H17.036C18.0157 41.3396 18.5092 41.0771 18.5092 40.5521C18.5092 40.3421 18.427 40.1771 18.255 40.0571C18.0905 39.9371 17.8512 39.8771 17.552 39.8771C17.3127 39.8771 17.0884 39.9071 16.8715 39.9746C16.6546 40.0346 16.4303 40.1471 16.1985 40.2971L15.832 39.7496C16.3406 39.3971 16.9313 39.2246 17.6193 39.2246C18.1428 39.2246 18.5541 39.3371 18.8532 39.5621C19.1599 39.7871 19.3094 40.0796 19.3094 40.4546L19.3244 40.4471Z" fill="#494848"/>
<path d="M22.6923 44.2338L22.5352 43.7163H22.5053C22.3258 43.9413 22.1464 44.0988 21.9594 44.1813C21.7799 44.2638 21.5406 44.3013 21.2565 44.3013C20.89 44.3013 20.6058 44.2038 20.3965 44.0013C20.1871 43.7988 20.0898 43.5213 20.0898 43.1613C20.0898 42.7788 20.2319 42.4863 20.5161 42.2913C20.8003 42.0963 21.234 41.9913 21.8173 41.9688L22.4605 41.9463V41.7438C22.4605 41.5038 22.4081 41.3238 22.2959 41.2113C22.1838 41.0913 22.0118 41.0313 21.7799 41.0313C21.5855 41.0313 21.406 41.0613 21.2265 41.1138C21.0545 41.1738 20.8825 41.2338 20.718 41.3163L20.4638 40.7463C20.6657 40.6413 20.89 40.5588 21.1293 40.5063C21.3686 40.4538 21.593 40.4238 21.8098 40.4238C22.281 40.4238 22.6399 40.5288 22.8867 40.7388C23.1335 40.9488 23.2457 41.2713 23.2457 41.7138V44.2338H22.6773H22.6923ZM21.5107 43.6938C21.7949 43.6938 22.0267 43.6113 22.2062 43.4538C22.3857 43.2963 22.4679 43.0638 22.4679 42.7788V42.4563L21.9893 42.4788C21.6154 42.4938 21.3462 42.5538 21.1742 42.6663C21.0022 42.7788 20.9199 42.9513 20.9199 43.1763C20.9199 43.3413 20.9723 43.4688 21.0695 43.5663C21.1667 43.6563 21.3163 43.7013 21.5182 43.7013L21.5107 43.6938Z" fill="#494848"/>
<path d="M26.6776 40.4919H27.5451L26.0046 42.2919L27.6797 44.2269H26.7674L25.1521 42.3294V44.2269H24.3594V40.4844H25.1521V42.2994L26.6702 40.4844L26.6776 40.4919Z" fill="#494848"/>
<path d="M30.6239 44.2338L30.4669 43.7163H30.437C30.2575 43.9413 30.078 44.0988 29.891 44.1813C29.7116 44.2638 29.4723 44.3013 29.1881 44.3013C28.8217 44.3013 28.5375 44.2038 28.3281 44.0013C28.1187 43.7988 28.0215 43.5213 28.0215 43.1613C28.0215 42.7788 28.1636 42.4863 28.4477 42.2913C28.7319 42.0963 29.1657 41.9913 29.749 41.9688L30.3921 41.9463V41.7438C30.3921 41.5038 30.3397 41.3238 30.2276 41.2113C30.1154 41.0913 29.9434 41.0313 29.7116 41.0313C29.5171 41.0313 29.3377 41.0613 29.1582 41.1138C28.9862 41.1738 28.8142 41.2338 28.6497 41.3163L28.3954 40.7463C28.5973 40.6413 28.8217 40.5588 29.061 40.5063C29.3003 40.4538 29.5246 40.4238 29.7415 40.4238C30.2126 40.4238 30.5716 40.5288 30.8184 40.7388C31.0651 40.9488 31.1773 41.2713 31.1773 41.7138V44.2338H30.609H30.6239ZM29.4424 43.6938C29.7265 43.6938 29.9584 43.6113 30.1378 43.4538C30.3173 43.2963 30.3996 43.0638 30.3996 42.7788V42.4563L29.921 42.4788C29.5471 42.4938 29.2778 42.5538 29.1058 42.6663C28.9338 42.7788 28.8516 42.9513 28.8516 43.1763C28.8516 43.3413 28.9039 43.4688 29.0011 43.5663C29.0984 43.6563 29.2479 43.7013 29.4498 43.7013L29.4424 43.6938Z" fill="#494848"/>
<path d="M33.1149 41.9913C33.4738 41.9913 33.743 41.9538 33.915 41.8713C34.087 41.7888 34.1693 41.6688 34.1693 41.5038C34.1693 41.1963 33.9001 41.0463 33.3617 41.0463C33.0027 41.0463 32.6363 41.1288 32.2624 41.2863L32.0081 40.6938C32.4418 40.5138 32.9204 40.4238 33.4439 40.4238C33.9076 40.4238 34.2665 40.5063 34.5208 40.6788C34.7751 40.8513 34.9022 41.0913 34.9022 41.4138C34.9022 41.8338 34.6629 42.1113 34.1843 42.2388V42.2688C34.4834 42.3513 34.7003 42.4638 34.8274 42.6138C34.9545 42.7638 35.0218 42.9513 35.0218 43.1763C35.0218 43.5213 34.8723 43.7913 34.5731 43.9938C34.274 44.1963 33.8552 44.3013 33.3168 44.3013C32.7335 44.3013 32.2848 44.2263 31.9707 44.0688V43.3788C32.382 43.5738 32.8083 43.6713 33.2495 43.6713C33.5636 43.6713 33.8104 43.6263 33.9824 43.5363C34.1544 43.4463 34.2366 43.3113 34.2366 43.1313C34.2366 42.9513 34.1469 42.8088 33.9749 42.7188C33.8029 42.6288 33.5337 42.5838 33.1747 42.5838H32.7185V41.9838H33.1149V41.9913Z" fill="#494848"/>
<path d="M37.1094 40.4922H37.9694L38.7247 42.6147C38.8369 42.9147 38.9191 43.1997 38.9565 43.4697H38.9864C39.0089 43.3422 39.0462 43.1922 39.0986 43.0197C39.1509 42.8397 39.4351 41.9997 39.9586 40.4997H40.8186L39.2257 44.7372C38.9341 45.5172 38.4555 45.9072 37.7749 45.9072C37.6029 45.9072 37.4309 45.8847 37.2589 45.8472V45.2172C37.3786 45.2472 37.5132 45.2547 37.6702 45.2547C38.0516 45.2547 38.3209 45.0297 38.4779 44.5872L38.62 44.2347L37.1243 40.4922H37.1094Z" fill="#494848"/>
<path d="M41.1641 41.9933C41.1641 41.1608 41.3061 40.5158 41.5903 40.0658C41.8745 39.6158 42.3232 39.3308 42.9364 39.2033C43.4001 39.1058 43.9385 39.0158 44.5442 38.9258L44.6564 39.6233C43.9161 39.7358 43.3776 39.8258 43.0411 39.8858C42.6896 39.9533 42.4354 40.0958 42.2783 40.3208C42.1213 40.5458 42.0315 40.8833 42.0091 41.3408H42.0615C42.1886 41.1533 42.3606 41.0108 42.5625 40.9058C42.7719 40.8008 42.9888 40.7483 43.2281 40.7483C43.6842 40.7483 44.0432 40.8908 44.2975 41.1833C44.5517 41.4758 44.6788 41.8808 44.6788 42.4058C44.6788 43.0058 44.5218 43.4708 44.2152 43.8008C43.9011 44.1308 43.4748 44.2958 42.9215 44.2958C42.3681 44.2958 41.9493 44.0933 41.6352 43.6883C41.3211 43.2833 41.1715 42.7133 41.1715 41.9858L41.1641 41.9933ZM42.9663 43.6583C43.5571 43.6583 43.8488 43.2683 43.8488 42.4958C43.8488 41.7233 43.5795 41.3708 43.0486 41.3708C42.899 41.3708 42.7644 41.4008 42.6223 41.4683C42.4877 41.5283 42.3606 41.6183 42.2409 41.7158C42.1288 41.8208 42.039 41.9258 41.9717 42.0383C41.9717 42.5708 42.054 42.9758 42.226 43.2458C42.398 43.5233 42.6373 43.6583 42.9588 43.6583H42.9663Z" fill="#494848"/>
<path d="M48.8869 42.3588C48.8869 42.9663 48.7298 43.4463 48.4157 43.7913C48.1016 44.1363 47.6679 44.3013 47.1145 44.3013C46.763 44.3013 46.4564 44.2263 46.1872 44.0613C45.918 43.9038 45.716 43.6788 45.5665 43.3788C45.4169 43.0788 45.3496 42.7413 45.3496 42.3513C45.3496 41.7438 45.5067 41.2713 45.8133 40.9338C46.1274 40.5963 46.5611 40.4238 47.122 40.4238C47.6828 40.4238 48.0867 40.5963 48.4008 40.9488C48.7149 41.2938 48.8719 41.7663 48.8719 42.3588H48.8869ZM46.1723 42.3588C46.1723 43.2213 46.4938 43.6563 47.1294 43.6563C47.7651 43.6563 48.0717 43.2213 48.0717 42.3588C48.0717 41.4963 47.7576 41.0763 47.122 41.0763C46.7929 41.0763 46.5462 41.1888 46.3966 41.4063C46.247 41.6238 46.1723 41.9463 46.1723 42.3588Z" fill="#494848"/>
<path d="M51.6929 44.3013C51.2217 44.3013 50.8552 44.1288 50.5935 43.7913H50.5486C50.5785 44.1063 50.5935 44.3013 50.5935 44.3688V45.8988H49.8008V40.4913H50.4439C50.4589 40.5588 50.4963 40.7313 50.5561 40.9938H50.5935C50.8403 40.6188 51.2142 40.4238 51.7077 40.4238C52.1714 40.4238 52.5378 40.5963 52.7921 40.9338C53.0463 41.2713 53.181 41.7438 53.181 42.3588C53.181 42.9738 53.0464 43.4463 52.7846 43.7913C52.5229 44.1363 52.1565 44.3013 51.6929 44.3013ZM51.4983 41.0763C51.1843 41.0763 50.9524 41.1663 50.8103 41.3538C50.6683 41.5413 50.5935 41.8338 50.5935 42.2388V42.3588C50.5935 42.8163 50.6683 43.1463 50.8103 43.3488C50.9524 43.5513 51.1917 43.6563 51.5133 43.6563C51.79 43.6563 51.9995 43.5438 52.149 43.3188C52.2986 43.0938 52.3733 42.7713 52.3733 42.3513C52.3733 41.9313 52.2986 41.6163 52.149 41.3988C51.9995 41.1813 51.7825 41.0763 51.4983 41.0763Z" fill="#494848"/>
<path d="M56.4101 40.4919H57.2775L55.737 42.2919L57.4121 44.2269H56.4998L54.8845 42.3294V44.2269H54.0918V40.4844H54.8845V42.2994L56.4026 40.4844L56.4101 40.4919Z" fill="#494848"/>
<path d="M58.7901 40.4922V42.4122C58.7901 42.6372 58.7752 42.9672 58.7378 43.3947L60.6073 40.4922H61.572V44.2347H60.8093V42.3522C60.8093 42.2472 60.8093 42.0822 60.8242 41.8497C60.8392 41.6172 60.8467 41.4522 60.8542 41.3397L58.992 44.2347H58.0273V40.4922H58.7826H58.7901Z" fill="#494848"/>
<path d="M80.5652 85.8283C80.5652 86.3908 80.4231 86.8333 80.1315 87.1483C79.8473 87.4633 79.4435 87.6208 78.9275 87.6208C78.6059 87.6208 78.3217 87.5458 78.0749 87.4033C77.8282 87.2608 77.6412 87.0508 77.5066 86.7808C77.372 86.5108 77.3047 86.1958 77.3047 85.8358C77.3047 85.2733 77.4468 84.8383 77.7309 84.5233C78.0151 84.2083 78.4189 84.0508 78.9424 84.0508C79.4659 84.0508 79.8323 84.2083 80.124 84.5308C80.4156 84.8533 80.5577 85.2808 80.5577 85.8283H80.5652ZM78.0675 85.8283C78.0675 86.6233 78.3591 87.0208 78.9499 87.0208C79.5407 87.0208 79.8174 86.6233 79.8174 85.8283C79.8174 85.0333 79.5257 84.6433 78.9424 84.6433C78.6358 84.6433 78.4115 84.7483 78.2769 84.9508C78.1422 85.1533 78.0675 85.4458 78.0675 85.8283Z" fill="#494848"/>
<path d="M83.9822 84.1113V84.6813H82.8605V87.5538H82.1276V84.6813H81.0059V84.1113H83.9747H83.9822Z" fill="#494848"/>
<path d="M89.1357 87.563H86.0547V87.008L87.2288 85.823C87.5728 85.4705 87.8046 85.2155 87.9168 85.0655C88.0289 84.9155 88.1112 84.7805 88.1636 84.6455C88.2159 84.5105 88.2383 84.3755 88.2383 84.2255C88.2383 84.023 88.1785 83.858 88.0514 83.738C87.9243 83.618 87.7597 83.558 87.5429 83.558C87.3709 83.558 87.1989 83.588 87.0418 83.6555C86.8773 83.723 86.6903 83.8355 86.4809 84.008L86.0846 83.528C86.3389 83.3105 86.5856 83.1605 86.8175 83.0705C87.0568 82.9805 87.311 82.9355 87.5803 82.9355C87.999 82.9355 88.343 83.048 88.5973 83.2655C88.8516 83.483 88.9787 83.783 88.9787 84.158C88.9787 84.3605 88.9413 84.563 88.8665 84.743C88.7917 84.9305 88.6796 85.118 88.53 85.313C88.3804 85.508 88.1262 85.778 87.7672 86.108L86.982 86.873V86.903H89.1357V87.548V87.563Z" fill="#494848"/>
<path d="M94.4245 85.283C94.4245 86.0705 94.2973 86.663 94.0431 87.0455C93.7888 87.428 93.3999 87.623 92.8765 87.623C92.353 87.623 91.9865 87.428 91.7248 87.0305C91.4631 86.633 91.3359 86.0555 91.3359 85.283C91.3359 84.4805 91.4631 83.888 91.7173 83.5055C91.9716 83.123 92.3605 82.9355 92.8765 82.9355C93.3925 82.9355 93.7664 83.138 94.0281 83.5355C94.2899 83.933 94.417 84.518 94.417 85.283H94.4245ZM92.0763 85.283C92.0763 85.9055 92.1361 86.348 92.2707 86.6105C92.3979 86.873 92.5998 87.008 92.8839 87.008C93.1681 87.008 93.37 86.873 93.4972 86.603C93.6243 86.333 93.6916 85.8905 93.6916 85.2755C93.6916 84.6605 93.6243 84.2255 93.4972 83.948C93.37 83.6705 93.1606 83.5355 92.8839 83.5355C92.6072 83.5355 92.3979 83.6705 92.2707 83.9405C92.1436 84.2105 92.0763 84.653 92.0763 85.2755V85.283Z" fill="#494848"/>
<path d="M98.0592 85.283C98.0592 86.0705 97.9321 86.663 97.6778 87.0455C97.4236 87.428 97.0347 87.623 96.5112 87.623C95.9878 87.623 95.6213 87.428 95.3596 87.0305C95.0978 86.633 94.9707 86.0555 94.9707 85.283C94.9707 84.4805 95.0978 83.888 95.3521 83.5055C95.6064 83.123 95.9952 82.9355 96.5112 82.9355C97.0272 82.9355 97.4011 83.138 97.6629 83.5355C97.9246 83.933 98.0517 84.518 98.0517 85.283H98.0592ZM95.7111 85.283C95.7111 85.9055 95.7709 86.348 95.9055 86.6105C96.0326 86.873 96.2345 87.008 96.5187 87.008C96.8029 87.008 97.0048 86.873 97.1319 86.603C97.2591 86.333 97.3264 85.8905 97.3264 85.2755C97.3264 84.6605 97.2591 84.2255 97.1319 83.948C97.0048 83.6705 96.7954 83.5355 96.5187 83.5355C96.242 83.5355 96.0326 83.6705 95.9055 83.9405C95.7784 84.2105 95.7111 84.653 95.7111 85.2755V85.283Z" fill="#494848"/>
<path d="M101.682 85.283C101.682 86.0705 101.555 86.663 101.301 87.0455C101.047 87.428 100.658 87.623 100.134 87.623C99.6108 87.623 99.2444 87.428 98.9826 87.0305C98.7209 86.633 98.5938 86.0555 98.5938 85.283C98.5938 84.4805 98.7209 83.888 98.9751 83.5055C99.2294 83.123 99.6183 82.9355 100.134 82.9355C100.65 82.9355 101.024 83.138 101.286 83.5355C101.548 83.933 101.675 84.518 101.675 85.283H101.682ZM99.3341 85.283C99.3341 85.9055 99.3939 86.348 99.5285 86.6105C99.6557 86.873 99.8576 87.008 100.142 87.008C100.426 87.008 100.628 86.873 100.755 86.603C100.882 86.333 100.949 85.8905 100.949 85.2755C100.949 84.6605 100.882 84.2255 100.755 83.948C100.628 83.6705 100.418 83.5355 100.142 83.5355C99.8651 83.5355 99.6557 83.6705 99.5285 83.9405C99.4014 84.2105 99.3341 84.653 99.3341 85.2755V85.283Z" fill="#494848"/>
<path d="M105.881 87.6208C105.447 87.6208 105.111 87.4633 104.872 87.1483H104.827C104.857 87.4408 104.872 87.6133 104.872 87.6808V89.0908H104.139V84.1108H104.729C104.744 84.1783 104.782 84.3283 104.834 84.5758H104.872C105.096 84.2233 105.44 84.0508 105.896 84.0508C106.322 84.0508 106.659 84.2083 106.898 84.5158C107.137 84.8308 107.257 85.2658 107.257 85.8283C107.257 86.3908 107.137 86.8333 106.891 87.1483C106.644 87.4633 106.315 87.6208 105.881 87.6208ZM105.702 84.6508C105.41 84.6508 105.201 84.7333 105.066 84.9058C104.931 85.0783 104.864 85.3483 104.864 85.7233V85.8358C104.864 86.2558 104.931 86.5558 105.066 86.7433C105.201 86.9308 105.417 87.0283 105.717 87.0283C105.971 87.0283 106.165 86.9233 106.3 86.7133C106.434 86.5033 106.502 86.2108 106.502 85.8283C106.502 85.4458 106.434 85.1458 106.3 84.9508C106.165 84.7558 105.963 84.6508 105.702 84.6508Z" fill="#494848"/>
<path d="M65.625 56.8946C65.625 55.1096 66.3504 54.2246 67.7937 54.2246C68.018 54.2246 68.2125 54.2396 68.3695 54.2771V54.8846C68.2125 54.8396 68.033 54.8171 67.8236 54.8171C67.3375 54.8171 66.9711 54.9446 66.7243 55.2071C66.4775 55.4696 66.3504 55.8896 66.328 56.4671H66.3653C66.4626 56.3021 66.5972 56.1671 66.7767 56.0771C66.9561 55.9871 67.158 55.9421 67.3973 55.9421C67.8087 55.9421 68.1302 56.0696 68.362 56.3246C68.5939 56.5796 68.706 56.9246 68.706 57.3596C68.706 57.8396 68.5714 58.2146 68.3097 58.4921C68.0405 58.7696 67.6815 58.9046 67.2179 58.9046C66.8963 58.9046 66.6121 58.8296 66.3728 58.6721C66.1335 58.5146 65.9466 58.2896 65.8194 57.9896C65.6923 57.6896 65.625 57.3296 65.625 56.9096V56.8946ZM67.2104 58.2971C67.4572 58.2971 67.6516 58.2146 67.7862 58.0571C67.9208 57.8921 67.9881 57.6596 67.9881 57.3596C67.9881 57.0971 67.9283 56.8946 67.7937 56.7446C67.6666 56.5946 67.4721 56.5196 67.2179 56.5196C67.0608 56.5196 66.9187 56.5496 66.7841 56.6171C66.6495 56.6846 66.5448 56.7746 66.47 56.8946C66.3953 57.0146 66.3579 57.1346 66.3579 57.2546C66.3579 57.5471 66.4401 57.7946 66.5972 57.9971C66.7542 58.1996 66.9561 58.2971 67.2029 58.2971H67.2104Z" fill="#666666"/>
<path d="M72.3248 56.5565C72.3248 57.344 72.1977 57.9365 71.9435 58.319C71.6892 58.7015 71.3003 58.8965 70.7768 58.8965C70.2534 58.8965 69.8869 58.7015 69.6252 58.304C69.3635 57.9065 69.2363 57.329 69.2363 56.5565C69.2363 55.754 69.3635 55.1615 69.6177 54.779C69.872 54.3965 70.2608 54.209 70.7768 54.209C71.2928 54.209 71.6668 54.4115 71.9285 54.809C72.1902 55.2065 72.3174 55.7915 72.3174 56.5565H72.3248ZM69.9767 56.5565C69.9767 57.179 70.0365 57.6215 70.1711 57.884C70.2982 58.1465 70.5002 58.2815 70.7843 58.2815C71.0685 58.2815 71.2704 58.1465 71.3975 57.8765C71.5247 57.6065 71.592 57.164 71.592 56.549C71.592 55.934 71.5247 55.499 71.3975 55.2215C71.2704 54.944 71.061 54.809 70.7843 54.809C70.5076 54.809 70.2982 54.944 70.1711 55.214C70.044 55.484 69.9767 55.9265 69.9767 56.549V56.5565Z" fill="#666666"/>
<path d="M89.0974 59.4669H86.3379V59.0469H89.0974V59.4669Z" fill="#666666"/>
<path d="M91.8278 59.4669H89.0684V59.0469H91.8278V59.4669Z" fill="#666666"/>
<path d="M94.5642 59.4669H91.8047V59.0469H94.5642V59.4669Z" fill="#666666"/>
<path d="M97.2946 59.4669H94.5352V59.0469H97.2946V59.4669Z" fill="#666666"/>
<path d="M99.7763 57.7723L99.8137 57.6223C99.896 57.3148 99.9708 57.0748 100.031 56.9098L100.801 55.0273H101.773V58.4773H101.1V55.6948L101.04 55.8823C100.95 56.2198 100.868 56.4598 100.801 56.6173L100.046 58.4773H99.4922L98.7369 56.6098C98.6322 56.3398 98.5349 56.0323 98.4527 55.6948V58.4773H97.7871V55.0273H98.7518L99.4996 56.8573C99.5669 57.0223 99.6567 57.3298 99.7614 57.7798L99.7763 57.7723Z" fill="#666666"/>
<path d="M104.107 55.102H102.627V54.787L103.158 54.247C103.315 54.082 103.419 53.9695 103.464 53.9095C103.517 53.8495 103.546 53.7895 103.569 53.737C103.591 53.6845 103.599 53.6245 103.599 53.572C103.599 53.4895 103.576 53.422 103.531 53.3845C103.487 53.347 103.419 53.3245 103.345 53.3245C103.262 53.3245 103.18 53.347 103.105 53.3845C103.03 53.422 102.948 53.4745 102.866 53.5495L102.619 53.257C102.724 53.167 102.806 53.107 102.881 53.0695C102.948 53.032 103.023 53.002 103.105 52.987C103.187 52.972 103.277 52.957 103.374 52.957C103.509 52.957 103.621 52.9795 103.726 53.032C103.831 53.0845 103.905 53.152 103.965 53.2345C104.025 53.3245 104.047 53.422 104.047 53.5345C104.047 53.632 104.033 53.722 103.995 53.812C103.958 53.902 103.905 53.9845 103.838 54.0745C103.763 54.1645 103.636 54.292 103.457 54.457L103.18 54.712V54.7345H104.107V55.1095V55.102Z" fill="#666666"/>
<path d="M115.061 60.2172C115.061 60.2172 117.656 67.6797 118.329 77.4447C118.329 77.4447 118.808 79.2672 117.409 79.6422C117.409 79.6422 115.884 80.0472 113.745 78.2097C111.606 76.3722 111.03 75.2397 108.361 75.7572C105.691 76.2747 104.569 73.2297 107.867 71.6922C111.165 70.1547 112.459 68.4147 112.384 67.2522C112.309 66.0897 110.268 65.3247 109.468 64.9497C108.667 64.5747 106.985 62.6097 109.512 61.1322C112.033 59.6622 114.493 58.3797 115.054 60.2097L115.061 60.2172Z" fill="#80A67B"/>
<path d="M119.992 73.0581C119.992 73.0581 119.745 72.2106 118.631 69.2556C118.048 67.7181 118.257 66.3681 116.784 65.6931C114.937 64.8456 117.083 70.2681 117.42 76.5606C120.493 80.3556 120 73.0581 120 73.0581H119.992Z" fill="#FDBE9C"/>
<path d="M169.551 100.695H5.20868C4.60156 100.695 4.10938 101.189 4.10938 101.798C4.10938 102.407 4.60156 102.9 5.20868 102.9H169.551C170.158 102.9 170.65 102.407 170.65 101.798C170.65 101.189 170.158 100.695 169.551 100.695Z" fill="#069D48"/>
</g>
</svg>
