<svg width="172" height="120" viewBox="0 0 172 120" fill="none" xmlns="http://www.w3.org/2000/svg">
<g clip-path="url(#clip0_13671_4189)">
<mask id="mask0_13671_4189" style="mask-type:luminance" maskUnits="userSpaceOnUse" x="0" y="0" width="172" height="120">
<path d="M172 0H0V120H172V0Z" fill="white"/>
</mask>
<g mask="url(#mask0_13671_4189)">
<path d="M55.2578 46.6661L58.152 50.3711C60.6273 52.5536 63.3867 54.0386 64.3065 51.6761C71.4109 33.4136 68.1578 22.2461 68.1578 22.2461L59.012 23.4836L55.2578 46.6661Z" fill="#49403E"/>
<path d="M49.7676 36.3301L58.233 42.8101C58.233 42.8101 57.889 45.8851 58.3302 46.6651" fill="#F4937C"/>
<path d="M56.4054 30.3106L50.9308 24.2639C48.4826 21.5599 48.6787 17.3695 51.3805 14.9092L52.0061 14.3395C55.0843 11.5363 59.8485 11.7666 62.6436 14.8537L66.3034 18.896C69.4102 22.3275 69.1545 27.6458 65.733 30.7616C63.0368 33.217 58.8586 33.0202 56.4054 30.3106Z" fill="#49403E"/>
<path d="M49.7676 35.5645V46.177L58.1806 43.327L58.0236 39.7495L49.7676 35.5645Z" fill="#F4937C"/>
<path d="M56.2755 18.7017L58.1967 18.651C62.1214 18.5472 65.3977 21.6642 65.5012 25.6003L65.7396 34.6722C65.8543 39.0357 62.4115 42.6754 58.0607 42.7905C53.493 42.9112 49.6948 39.2904 49.5747 34.7169L49.3463 26.0274C49.2428 22.0913 52.3507 18.8055 56.2755 18.7017Z" fill="#FDBE9C"/>
<path d="M58.3995 31.2737C58.7546 31.2643 59.0309 30.8203 59.0168 30.282C59.0027 29.7438 58.7034 29.315 58.3483 29.3244C57.9933 29.3337 57.7169 29.7777 57.731 30.316C57.7451 30.8543 58.0445 31.2831 58.3995 31.2737Z" fill="#6B4132"/>
<path d="M58.1747 29.5948C57.5091 29.7973 57.0454 30.1723 56.9407 29.8273C56.836 29.4823 57.2922 29.0473 57.9578 28.8448C58.6233 28.6423 59.2515 28.7473 59.3487 29.0923C59.446 29.4373 58.8402 29.3923 58.1747 29.5948Z" fill="#6B4132"/>
<path d="M64.5363 30.8173C64.6512 30.2913 64.4631 29.8031 64.1161 29.7269C63.7692 29.6506 63.3948 30.0152 63.2798 30.5412C63.1649 31.0672 63.353 31.5554 63.7 31.6317C64.0469 31.7079 64.4213 31.3433 64.5363 30.8173Z" fill="#6B4132"/>
<path d="M64.2414 30.0304C64.8546 30.3604 65.2435 30.8104 65.408 30.4954C65.5725 30.1804 65.2061 29.6629 64.5928 29.3404C63.9796 29.0179 63.344 29.0029 63.1794 29.3179C63.0149 29.6329 63.6281 29.7079 64.2414 30.0379V30.0304Z" fill="#6B4132"/>
<path d="M61.309 37.9716C60.1274 37.9716 59.0581 37.6116 58.9833 37.5891C58.7664 37.5141 58.6468 37.2741 58.7215 37.0566C58.7963 36.8391 59.0356 36.7191 59.2525 36.7941C59.2749 36.8016 61.8624 37.6641 63.0365 36.6216C63.2085 36.4641 63.4777 36.4866 63.6273 36.6591C63.7768 36.8316 63.7619 37.0941 63.5899 37.2516C62.9617 37.8066 62.1092 37.9716 61.309 37.9716Z" fill="#F4937C"/>
<path d="M61.0407 33.892C61.0407 33.892 63.4412 34.117 63.6581 33.3145C64.0694 33.697 63.9796 34.3645 63.0822 34.672C62.6709 34.807 61.3249 34.657 61.0332 33.8995L61.0407 33.892Z" fill="#F4937C"/>
<path d="M59.2439 16.2761C57.1799 12.6836 53.037 12.5711 49.0137 13.5311C46.5608 14.1161 44.5043 15.4886 43.4947 16.7261C39.449 21.6986 38.7834 28.7786 38.918 33.5711C39.2546 45.0836 40.9222 50.2736 41.9766 52.8761C42.9264 55.2311 44.3772 52.3211 46.845 52.8761C49.3726 53.4386 49.7615 46.2536 49.7615 46.2536L49.956 30.2186C50.3074 30.0836 50.6514 29.9261 50.9879 29.7311L56.5069 26.5361C60.089 24.4661 61.3154 19.8686 59.2439 16.2761Z" fill="#49403E"/>
<path d="M48.609 36.3594C50.1579 36.3594 51.4134 35.1001 51.4134 33.5469C51.4134 31.9935 50.1579 30.7344 48.609 30.7344C47.0602 30.7344 45.8047 31.9935 45.8047 33.5469C45.8047 35.1001 47.0602 36.3594 48.609 36.3594Z" fill="#FDBE9C"/>
<path d="M49.0069 37.0945C49.4282 37.0945 49.7697 36.7519 49.7697 36.3295C49.7697 35.907 49.4282 35.5645 49.0069 35.5645C48.5856 35.5645 48.2441 35.907 48.2441 36.3295C48.2441 36.7519 48.5856 37.0945 49.0069 37.0945Z" fill="white"/>
<path d="M72.7509 55.3564C71.173 52.8289 69.8194 51.5989 66.2448 50.3239C66.2448 50.3239 63.1488 49.2664 62.0495 48.9589C61.1596 48.7039 58.3104 48.0664 58.3104 48.0664L49.2617 48.1339C49.2617 48.1339 48.0203 48.4489 46.8911 48.7714C45.0888 49.2814 37.5358 51.7939 37.5358 51.7939C36.601 51.9964 35.7933 52.4839 35.1652 53.1439V53.1289C35.1652 53.1289 32.9815 55.1764 31.082 61.4839C31.082 61.9714 31.082 63.5989 32.5253 66.3289C35.4119 71.8039 38.0966 72.8989 38.0966 72.8989L38.3434 113.564H71.7563L70.0961 64.0414L74.6354 58.7914L72.7434 55.3714L72.7509 55.3564Z" fill="#685959"/>
<path d="M49.7706 46.1778C49.7706 46.1778 49.5687 47.6253 49.2695 48.0978C49.2695 48.0978 52.044 55.5603 56 55.3203C56 55.3203 58.8342 54.4878 58.3332 47.7978C58.3332 47.7978 58.1836 45.9528 58.1836 43.3203L49.7706 46.1703V46.1778Z" fill="#FDBE9C"/>
<path d="M49.4697 30.8765C49.4697 30.8765 50.2923 31.3115 50.3297 31.889C50.3671 32.4665 51.2047 32.849 51.2645 31.889C51.3243 30.929 52.2292 29.2565 52.5732 28.8065C52.9172 28.364 49.1855 28.604 49.1855 28.604L49.4697 30.869V30.8765Z" fill="#49403E"/>
<path d="M55.9684 28.7988C55.8861 28.7988 55.8039 28.7688 55.744 28.7013C55.6244 28.5738 55.6244 28.3788 55.744 28.2588C55.7739 28.2288 56.4919 27.5313 57.6809 27.1638C58.3913 26.9463 59.2887 27.0138 59.3336 27.0138C59.5056 27.0288 59.6327 27.1788 59.6178 27.3513C59.6028 27.5238 59.4757 27.6363 59.2813 27.6438C59.2738 27.6438 58.4586 27.5838 57.8679 27.7638C56.8359 28.0863 56.1927 28.7013 56.1853 28.7088C56.1254 28.7688 56.0432 28.7988 55.9684 28.7988Z" fill="#6B4132"/>
<path d="M65.8931 28.364C65.8258 28.364 65.7585 28.3415 65.6986 28.2965C65.6986 28.2965 65.0555 27.7865 64.4572 27.599C63.4252 27.284 62.5503 27.434 62.5353 27.434C62.3558 27.464 62.2063 27.3515 62.1689 27.179C62.139 27.0065 62.2511 26.8415 62.4231 26.8115C62.4605 26.804 63.4551 26.6315 64.6367 26.9915C65.3471 27.209 66.0576 27.7715 66.0875 27.794C66.2221 27.9065 66.2445 28.1015 66.1398 28.2365C66.08 28.3115 65.9828 28.3565 65.8931 28.3565V28.364Z" fill="#6B4132"/>
<path d="M55.9986 55.3202L51.8781 58.0877C51.8781 58.0877 46.7555 54.1652 47.5482 48.5552L49.2757 48.0977C49.2757 48.0977 50.5096 52.5452 56.0061 55.3202H55.9986Z" fill="#7A6868"/>
<path d="M58.3482 48.0371L59.799 48.3746C59.799 48.3746 61.7508 54.9896 59.6344 57.7121L56 55.3271C56 55.3271 58.5501 52.8146 58.3407 48.0446L58.3482 48.0371Z" fill="#7A6868"/>
<path d="M99.3358 54.1262L93.2784 63.2012C92.8447 63.8462 91.9024 63.8538 91.4687 63.2087L85.2617 54.1262L86.5779 40.0938H98.2141L99.3358 54.1262Z" fill="#FDBE9C"/>
<path d="M86.2113 44.1895L86.002 46.4245C87.7145 47.8345 89.9056 48.6745 92.2912 48.6745C94.6767 48.6745 97.0099 47.767 98.7225 46.3795L98.528 44.1445L86.2113 44.182V44.1895Z" fill="#F4937C"/>
<path d="M81.6191 21.2695H103.037V35.8795C103.037 41.8045 98.2358 46.6195 92.328 46.6195C86.4202 46.6195 81.6191 41.8045 81.6191 35.8795V21.2695Z" fill="#FDBE9C"/>
<path d="M81.6206 33.5706C83.2188 33.5706 84.5147 32.2711 84.5147 30.6681C84.5147 29.0651 83.2188 27.7656 81.6206 27.7656C80.0218 27.7656 78.7266 29.0651 78.7266 30.6681C78.7266 32.2711 80.0218 33.5706 81.6206 33.5706Z" fill="#FDBE9C"/>
<path d="M103.037 33.5706C104.635 33.5706 105.931 32.2711 105.931 30.6681C105.931 29.0651 104.635 27.7656 103.037 27.7656C101.439 27.7656 100.143 29.0651 100.143 30.6681C100.143 32.2711 101.439 33.5706 103.037 33.5706Z" fill="#FDBE9C"/>
<path d="M81.6191 27.7656C81.6191 27.7656 81.7014 23.8506 84.7301 23.8281H81.6191V27.7656Z" fill="#6B4132"/>
<path d="M103.037 27.7656C103.037 27.7656 102.954 23.8506 99.9258 23.8281H103.037V27.7656Z" fill="#6B4132"/>
<path d="M98.863 21.2547C98.863 21.2547 98.9228 23.5497 102.924 26.6847V32.2047C102.924 32.2047 105.922 28.4772 105.197 21.5247C105.197 21.5247 104.786 16.9197 100.598 15.5097C100.598 15.5097 99.1472 14.0772 96.5597 12.6072C96.5597 12.6072 88.6926 8.37716 82.4707 14.6322C82.4707 14.6322 79.5018 17.1147 78.8213 21.5922C78.4249 24.2247 78.4548 27.3222 81.7602 31.8297C81.9322 32.0622 81.7602 26.5422 81.7602 26.5422C81.7602 26.5422 95.2884 25.9347 98.863 21.2547Z" fill="#6B4132"/>
<path d="M87.7572 33.5693C88.3681 33.5693 88.864 32.9447 88.864 32.1743C88.864 31.4038 88.3681 30.7793 87.7572 30.7793C87.1462 30.7793 86.6504 31.4038 86.6504 32.1743C86.6504 32.9447 87.1462 33.5693 87.7572 33.5693Z" fill="#6B4132"/>
<path d="M97.6966 33.5693C98.3083 33.5693 98.8034 32.9447 98.8034 32.1743C98.8034 31.4038 98.3083 30.7793 97.6966 30.7793C97.0856 30.7793 96.5898 31.4038 96.5898 32.1743C96.5898 32.9447 97.0856 33.5693 97.6966 33.5693Z" fill="#6B4132"/>
<path d="M85.0675 29.7217C84.8955 29.7217 84.731 29.6467 84.6113 29.5117C84.402 29.2567 84.4319 28.8892 84.6861 28.6792C84.7684 28.6117 86.6753 27.0292 89.6891 27.4642C90.0107 27.5092 90.235 27.8092 90.1901 28.1392C90.1453 28.4692 89.8387 28.6942 89.5171 28.6417C87.0493 28.2817 85.5013 29.5417 85.4414 29.5942C85.3293 29.6842 85.1947 29.7292 85.06 29.7292L85.0675 29.7217Z" fill="#6B4132"/>
<path d="M100.681 29.7213C100.546 29.7213 100.412 29.6763 100.299 29.5863C100.232 29.5263 98.6765 28.2813 96.2237 28.6338C95.9021 28.6788 95.5955 28.4538 95.5506 28.1313C95.5058 27.8088 95.7301 27.5013 96.0517 27.4563C99.0654 27.0288 100.98 28.6038 101.055 28.6713C101.309 28.8813 101.339 29.2563 101.129 29.5113C101.01 29.6538 100.845 29.7213 100.673 29.7213H100.681Z" fill="#6B4132"/>
<path d="M92.8595 36.711C91.6779 36.711 90.788 36.171 90.7357 36.1335C90.459 35.961 90.3767 35.5935 90.5487 35.316C90.7207 35.0385 91.0871 34.9485 91.3638 35.1285C91.4237 35.166 92.8296 36.006 94.228 35.1285C94.5122 34.956 94.8711 35.0385 95.0431 35.316C95.2151 35.5935 95.1329 35.961 94.8562 36.1335C94.1607 36.5685 93.4727 36.711 92.867 36.711H92.8595Z" fill="#F4937C"/>
<path d="M92.5525 42.1201C90.0024 42.1201 88.245 40.8376 88.2226 40.8226C88.0132 40.6501 87.9758 40.3426 88.1478 40.1326C88.3198 39.9226 88.6264 39.8926 88.8358 40.0576C88.8881 40.0951 92.2309 42.5326 96.3365 40.0201C96.5683 39.8851 96.8674 39.9526 97.0095 40.1851C97.1516 40.4176 97.0768 40.7176 96.845 40.8601C95.297 41.8051 93.8238 42.1201 92.5599 42.1201H92.5525Z" fill="#F4937C"/>
<path d="M120.737 57.899L109.49 54.584L92.2974 63.6665L75.1049 54.584L66.8564 57.614C66.8564 57.614 65.4878 57.944 65.0466 58.709C64.4783 59.714 41.2284 108.456 55.3473 113.639H65.1513L122.225 113.586L120.73 57.8915L120.737 57.899Z" fill="#069D48"/>
<path d="M86.0013 46.252C86.0013 46.252 77.7603 46.3945 75.098 54.6145C74.7392 55.732 75.285 56.947 76.3768 57.382L92.298 63.6895L85.2759 54.157L85.9938 46.252H86.0013Z" fill="#FCF2ED"/>
<path d="M98.7077 46.252C98.7077 46.252 106.837 46.387 109.499 54.607C109.858 55.7245 109.312 56.9395 108.22 57.3745L92.2988 63.682L99.3209 54.1495L98.7077 46.252Z" fill="#FCF2ED"/>
<path d="M62.3105 79.4917L78.2241 76.1167C78.9195 75.9667 79.6001 76.4167 79.7496 77.1142L84.1543 98.1667C84.2964 98.8417 83.8776 99.5168 83.2121 99.6817L69.9459 103.019L62.3105 79.4917Z" fill="#80A67B"/>
<path d="M62.3087 79.4609L59.2949 79.6484L66.9601 103.266L70.1234 102.958L62.3087 79.4609Z" fill="#73956F"/>
<path d="M59.2962 79.6512L48.6098 75.0462C48.0863 74.8212 47.5479 75.3387 47.7573 75.8712L56.9256 99.3537L67.1484 103.734L59.2962 79.6512Z" fill="#80A67B"/>
<path d="M60.769 104.227C60.769 104.227 55.2874 110.459 60.769 112.312C66.2505 114.164 67.7237 106.882 67.7237 106.882C67.7237 106.882 70.9244 104.969 72.4051 103.364C73.8858 101.759 75.8524 100.034 75.112 99.3517C74.783 99.0517 73.6914 100.169 72.7566 100.912C71.5825 101.849 70.558 102.494 70.558 102.494C70.558 102.494 69.8999 102.764 70.7001 101.684C71.5003 100.604 75.2691 97.0042 75.2691 97.0042C75.2691 97.0042 75.6056 96.5467 75.3065 96.2242C75.2018 96.1192 74.7979 96.0217 74.4317 96.2392C72.9959 97.0792 70.7599 99.3367 69.8326 100.214C69.3989 100.619 69.3465 100.552 69.3091 100.529C69.2418 100.477 69.683 99.9667 69.683 99.9667L74.3644 94.1617C74.3644 94.1617 74.2448 93.0517 72.951 93.9142C71.6573 94.7767 68.0229 99.3517 68.0229 99.3517C68.0229 99.3517 66.8563 100.462 67.5891 97.9867C68.3295 95.5192 69.2493 92.9842 69.2493 92.9842C69.2493 92.9842 68.5912 91.0117 66.9161 93.8467C65.241 96.6892 64.1342 99.5242 63.521 100.514C62.9077 101.504 62.3843 101.827 61.457 101.332C60.5297 100.837 59.2957 97.6867 58.4881 98.5192C57.845 99.1792 58.533 102.547 60.754 104.212L60.769 104.227Z" fill="#FDBE9C"/>
<path d="M60.6653 78.9073C60.6653 78.9073 71.1199 71.9248 78.0599 72.8248L78.4787 76.0873L62.3105 79.4623L59.4239 79.8148L48.6104 75.0448L47.4961 72.3223C47.4961 72.3223 55.3333 74.4598 60.6728 78.9073H60.6653Z" fill="#EDEFED"/>
<path d="M61.2049 79.3126C61.2049 79.3126 71.9961 72.9601 78.1732 73.6951L78.4798 76.0876L62.3117 79.4626L59.4251 79.8151L48.6115 75.0451L47.9609 73.4551C47.9609 73.4551 55.6336 75.6451 60.7637 79.6576L61.2049 79.3126Z" fill="#E0E0E0"/>
<path d="M143.358 113.52H31.1248C30.7118 113.52 30.377 113.856 30.377 114.27V114.975C30.377 115.389 30.7118 115.725 31.1248 115.725H143.358C143.771 115.725 144.106 115.389 144.106 114.975V114.27C144.106 113.856 143.771 113.52 143.358 113.52Z" fill="#069D48"/>
<path d="M37.9902 72.7334C37.9902 72.7334 38.5511 70.9034 38.9923 69.2459C39.5457 67.2284 39.6504 66.3059 40.2561 62.5859C40.2561 62.5859 43.8233 107.736 45.5059 113.518H38.3492L37.9902 72.7334Z" fill="#544848"/>
<path d="M120.933 53.5876L128.808 54.1426L137.146 89.2501H120.185L114.285 83.7526C114.285 83.7526 110.351 59.8801 120.941 53.5801L120.933 53.5876Z" fill="#FCF2ED"/>
<path d="M123.519 87.0668L114.941 83.3318L106.648 75.9668L97.5091 77.7668C97.5091 77.7668 97.0903 79.0718 100.007 79.0343C102.923 78.9968 104.643 78.6818 104.643 78.6818L101.196 80.3768C101.196 80.3768 100.104 81.8543 101.936 82.7018C101.936 82.7018 101.024 84.7268 104.008 85.1093C104.008 85.1093 104.569 87.3368 106.962 86.4668C106.962 86.4668 107.276 88.8743 112.653 88.8068L117.581 93.3218L123.511 87.0818L123.519 87.0668Z" fill="#FDBE9C"/>
<path d="M113.993 90.0156L104.159 100.351L98.7227 113.791H111.002L115.825 107.873L124.964 102.983C124.964 102.983 122.81 93.6006 114.277 90.0231" fill="#49403E"/>
<path d="M123.52 87.0666C123.52 87.0666 132.307 86.9991 137.893 89.7816L139.546 87.9816C139.546 87.9816 147.032 97.2891 139.897 104.864C139.897 104.864 120.095 113.114 117.59 93.3066L123.52 87.0666Z" fill="#069D48"/>
<path d="M117.59 91.8828V93.3078L118.397 92.4678L117.59 91.8828Z" fill="#E2821A"/>
<path d="M121.449 54.607L123.05 51.1945L129.548 47.5645L129.75 51.802L127.267 54.712C127.267 54.712 123.902 57.4045 121.457 54.607H121.449Z" fill="#FDBE9C"/>
<path d="M122.121 53.182C122.121 53.182 127.588 53.2195 129.525 47.5645L123.048 51.1945L122.121 53.1745V53.182Z" fill="#EA9C7A"/>
<path d="M120.229 36.8087C118.3 40.7837 118.622 41.6012 118.622 44.9612C118.622 48.4112 121.142 51.5837 122.406 51.6437C125.816 51.7937 125.868 51.3662 127.94 49.8362C127.94 49.8362 129.316 48.3737 130.019 46.6787C130.019 46.6787 131.985 46.8887 132.269 45.0212C132.554 43.1537 130.49 42.9212 130.071 43.5812C130.071 43.5812 130.677 40.3262 129.248 37.9037C127.192 34.4237 122.608 31.9112 120.229 36.8087Z" fill="#FDBE9C"/>
<path d="M146.611 88.5701L145.266 88.9518C144.483 89.1746 144.028 89.9913 144.249 90.7766L145.382 94.7883C145.604 95.5736 146.418 96.0296 147.201 95.8076L148.547 95.4251C149.329 95.2031 149.785 94.3863 149.563 93.6011L148.43 89.5893C148.208 88.8041 147.394 88.3473 146.611 88.5701Z" fill="#FDBE9C"/>
<path d="M144.503 72.6902C139.163 58.7327 129.74 51.8027 129.74 51.8027L126.6 55.1027L134.736 89.6177C134.736 89.6177 138.385 90.6752 141.459 89.4452C142.895 91.2602 144.226 92.4452 145.213 92.5952C148.548 93.1052 149.715 90.0152 149.715 90.0152C149.715 90.0152 149.857 86.6477 144.518 72.6902H144.503Z" fill="#685959"/>
<path d="M121.448 54.3902C121.448 54.3902 119.032 54.7202 117.238 65.0552C115.443 75.3902 114.987 83.3552 114.987 83.3552L111.479 80.2577C111.479 80.2577 111.113 74.3177 111.479 71.0477C112.982 57.6527 114.523 56.0927 114.523 56.0927C114.523 56.0927 118.21 53.8052 121.313 54.1877L121.44 54.3827L121.448 54.3902Z" fill="#685959"/>
<path d="M122.405 52.5608C122.405 52.5608 119.938 52.3358 117.829 54.6158L117.238 64.7633C117.238 64.7633 118.636 55.1783 121.448 54.6158L122.405 52.5608Z" fill="#544848"/>
<path d="M129.787 51.8025C129.787 51.8025 131.036 51.645 131.664 53.3925C131.664 53.3925 130.236 53.115 129.346 56.52C128.598 59.3775 129.757 68.3175 129.757 68.3175C129.757 68.3175 125.936 59.8425 126.698 54.7125C126.93 53.13 128.314 52.0575 129.787 51.8025Z" fill="#544848"/>
<path d="M135.693 68.3256L141.452 89.4531C141.452 89.4531 140.734 89.7456 140.023 89.8656C139.41 89.9706 138.572 90.0306 138.572 90.0306L135.693 68.0781" fill="#594A4A"/>
<path d="M130.07 43.5826C130.07 43.5826 128.312 42.9976 128.686 40.2001C128.686 40.2001 126.749 40.2001 124.625 39.7276C123.451 39.4651 122.703 39.2851 120.924 38.4601C120.924 38.4601 120.325 39.1651 119.121 39.4201L118.613 41.8501C118.613 41.8501 116.945 40.2001 118.321 37.8901C118.321 37.8901 117.14 35.7901 118.059 34.0801C119.406 31.5751 121.215 31.4101 121.941 31.5526C121.941 31.5526 125.104 28.7626 130.07 31.4551C130.07 31.4551 132.216 32.5651 132.552 35.4376C132.552 35.4376 137.473 37.7251 134.452 44.7751C134.452 44.7751 132.769 49.0051 129.613 49.0426L129.516 47.5651L129.838 47.0401L130.025 46.6801C130.025 46.6801 132.036 46.7776 132.253 44.9626C132.485 43.0126 130.578 43.0951 130.077 43.5751L130.07 43.5826Z" fill="#6B4132"/>
<path d="M117.014 39.27C117.014 39.27 118.42 39.9 119.945 39.1425C121.471 38.385 121.329 37.5525 121.329 37.5525C121.329 37.5525 120.072 36.1275 118.98 36.405C118.225 36.6 117.739 38.175 117.014 39.2625V39.27Z" fill="#6B4132"/>
<path d="M44.31 81.8993C41.5132 80.9318 38.6116 79.8143 36.0989 78.2843L37.946 72.7793C37.946 72.7793 36.428 71.9468 34.5135 69.4568C32.9132 67.3793 31.7241 64.5293 31.7241 64.5293L26.7287 78.5318C26.1453 80.1668 26.5716 82.0643 27.9551 83.2718C34.2069 87.7118 41.9768 89.2043 49.3504 90.3443C50.33 90.4718 52.1099 90.6668 53.5756 90.8093C52.6259 88.3418 52.2819 87.4868 50.7937 83.7293C48.6026 83.2118 46.3067 82.5818 44.2951 81.8918L44.31 81.8993Z" fill="#FDBE9C"/>
<path d="M120.798 42.675C120.819 42.2406 120.596 41.8765 120.299 41.8618C120.002 41.8471 119.744 42.1873 119.722 42.6217C119.7 43.0561 119.924 43.4201 120.221 43.4349C120.518 43.4496 120.777 43.1094 120.798 42.675Z" fill="#6B4132"/>
<path d="M125.452 43.2785C125.473 42.8441 125.251 42.4801 124.953 42.4653C124.656 42.4506 124.398 42.7908 124.376 43.2252C124.355 43.6596 124.579 44.0237 124.876 44.0384C125.173 44.0531 125.431 43.7129 125.452 43.2785Z" fill="#6B4132"/>
<path d="M119.258 41.6248C119.131 41.6248 119.019 41.5423 118.989 41.4148C118.959 41.2948 119.011 41.1823 119.109 41.1223C119.759 40.5823 120.544 40.5523 121.098 40.6198C121.247 40.6423 121.352 40.7773 121.337 40.9273C121.315 41.0773 121.173 41.1748 121.03 41.1673C120.589 41.1148 119.961 41.1298 119.475 41.5348C119.445 41.5648 119.37 41.6098 119.333 41.6173C119.31 41.6173 119.288 41.6248 119.266 41.6248H119.258Z" fill="#6B4132"/>
<path d="M126.286 41.9259C126.286 41.9259 126.242 41.9259 126.22 41.9184C126.183 41.9109 126.107 41.8659 126.077 41.8359C125.591 41.4309 124.963 41.4084 124.522 41.4684C124.372 41.4759 124.231 41.3784 124.216 41.2284C124.193 41.0784 124.305 40.9359 124.455 40.9209C125.008 40.8459 125.794 40.8759 126.437 41.4159C126.534 41.4759 126.586 41.5959 126.556 41.7159C126.526 41.8434 126.414 41.9259 126.286 41.9259Z" fill="#6B4132"/>
<path d="M121.904 46.034C121.388 46.034 121.006 45.7415 120.834 45.524C120.737 45.404 120.759 45.2315 120.879 45.134C120.999 45.044 121.171 45.059 121.268 45.179C121.313 45.2315 121.717 45.704 122.397 45.3365C122.532 45.2615 122.696 45.314 122.771 45.449C122.846 45.584 122.794 45.749 122.659 45.824C122.382 45.974 122.128 46.0265 121.904 46.0265V46.034Z" fill="#F4937C"/>
<path d="M122.054 48.8019C121.224 48.8019 120.73 48.2844 120.723 48.2769C120.618 48.1644 120.625 47.9919 120.737 47.8869C120.85 47.7819 121.022 47.7894 121.126 47.9019C121.126 47.9019 121.956 48.7569 123.332 47.7594C123.452 47.6694 123.624 47.6994 123.714 47.8194C123.804 47.9394 123.774 48.1119 123.654 48.2019C123.033 48.6519 122.495 48.7944 122.054 48.7944V48.8019Z" fill="#F4937C"/>
<path d="M81.807 31.6953C81.807 31.6953 82.667 35.9853 85.4863 37.6878C87.4232 38.8578 90.1378 37.4853 93.2412 37.4253C95.2529 37.3878 98.4013 38.7228 100.413 37.4703C100.413 37.4703 102.529 36.7128 102.933 32.1978C102.933 32.1978 105.319 46.1703 92.3289 46.6203C92.3289 46.6203 79.4439 46.8603 81.807 31.6953Z" fill="#6B4132"/>
<path d="M92.7684 41.782C91.5494 41.782 90.682 41.392 90.6221 41.362C90.4352 41.272 90.3529 41.0545 90.4427 40.867C90.5324 40.6795 90.7567 40.597 90.9362 40.6795C90.9587 40.687 93.0526 41.617 95.2063 40.372C95.3858 40.267 95.6101 40.327 95.7148 40.507C95.8195 40.687 95.7597 40.912 95.5802 41.017C94.5781 41.602 93.5985 41.7745 92.7759 41.7745L92.7684 41.782Z" fill="#F4937C"/>
<path d="M132.749 35.5877C132.749 35.5877 133.258 34.6577 132.996 33.2852C132.996 33.2852 132.016 34.4252 131.306 34.2977C130.595 34.1702 132.749 35.5802 132.749 35.5802V35.5877Z" fill="#6B4132"/>
<path d="M132.367 35.1838C132.367 35.1838 133.638 35.1388 134.603 36.5188C134.603 36.5188 132.674 36.6838 132.599 37.3288C132.524 37.9738 132.367 35.1838 132.367 35.1838Z" fill="#6B4132"/>
</g>
</g>
<defs>
<clipPath id="clip0_13671_4189">
<rect width="172" height="120" fill="white"/>
</clipPath>
</defs>
</svg>
