<svg width="172" height="120" viewBox="0 0 172 120" fill="none" xmlns="http://www.w3.org/2000/svg">
<g clip-path="url(#clip0_13671_4079)">
<mask id="mask0_13671_4079" style="mask-type:luminance" maskUnits="userSpaceOnUse" x="0" y="0" width="172" height="120">
<path d="M172 0H0V120H172V0Z" fill="white"/>
</mask>
<g mask="url(#mask0_13671_4079)">
<path d="M86.001 114.299C124.481 114.299 155.676 111.785 155.676 108.682C155.676 105.579 124.481 103.064 86.001 103.064C47.5207 103.064 16.3262 105.579 16.3262 108.682C16.3262 111.785 47.5207 114.299 86.001 114.299Z" fill="#F0E3DA"/>
<path d="M106.377 58.8438H136.215V99.1262C136.215 100.326 135.243 101.301 134.046 101.301H108.538C107.341 101.301 106.369 100.326 106.369 99.1262V58.8438H106.377Z" fill="#069D48"/>
<path d="M126.539 72.9375H117.625C117.196 72.9375 116.848 73.2867 116.848 73.7175V73.7325C116.848 74.1633 117.196 74.5125 117.625 74.5125H126.539C126.969 74.5125 127.317 74.1633 127.317 73.7325V73.7175C127.317 73.2867 126.969 72.9375 126.539 72.9375Z" fill="white"/>
<path d="M126.539 84.4961H117.625C117.196 84.4961 116.848 84.8456 116.848 85.2761V85.2911C116.848 85.7216 117.196 86.0711 117.625 86.0711H126.539C126.969 86.0711 127.317 85.7216 127.317 85.2911V85.2761C127.317 84.8456 126.969 84.4961 126.539 84.4961Z" fill="white"/>
<path d="M126.539 95.5195H117.625C117.196 95.5195 116.848 95.869 116.848 96.2995V96.3145C116.848 96.745 117.196 97.0945 117.625 97.0945H126.539C126.969 97.0945 127.317 96.745 127.317 96.3145V96.2995C127.317 95.869 126.969 95.5195 126.539 95.5195Z" fill="white"/>
<path d="M136.217 90.2695H106.379V91.8445H136.217V90.2695Z" fill="#25764A"/>
<path d="M136.217 78.832H106.379V80.407H136.217V78.832Z" fill="#25764A"/>
<path d="M126.539 62.4297H117.625C117.196 62.4297 116.848 62.7789 116.848 63.2097V63.2247C116.848 63.6555 117.196 64.0047 117.625 64.0047H126.539C126.969 64.0047 127.317 63.6555 127.317 63.2247V63.2097C127.317 62.7789 126.969 62.4297 126.539 62.4297Z" fill="white"/>
<path d="M136.217 67.3945H106.379V68.9695H136.217V67.3945Z" fill="#25764A"/>
<path d="M136.24 56.7461H106.364C105.793 56.7461 105.332 57.2094 105.332 57.7811V57.8111C105.332 58.3827 105.793 58.8461 106.364 58.8461H136.24C136.81 58.8461 137.272 58.3827 137.272 57.8111V57.7811C137.272 57.2094 136.81 56.7461 136.24 56.7461Z" fill="#7F6C6C"/>
<path d="M112.66 106.545H110.566V101.295H113.707L112.66 106.545Z" fill="#685959"/>
<path d="M111.613 106.545H109.52V101.295H112.66L111.613 106.545Z" fill="#7F6C6C"/>
<path d="M113.184 101.295H109.52V102.345H113.184V101.295Z" fill="#685959"/>
<path d="M131.514 106.545H133.608V101.295H130.467L131.514 106.545Z" fill="#685959"/>
<path d="M132.559 106.545H134.653V101.295H131.512L132.559 106.545Z" fill="#7F6C6C"/>
<path d="M131.506 102.353H134.647V101.303H131.506V102.353Z" fill="#685959"/>
<path d="M72.0231 22.8971L73.1 18.5021L67.2969 17.0696C66.6014 16.8971 65.8685 17.0696 65.3151 17.5271C64.7617 17.9846 64.1784 18.6521 64.2457 19.5596C64.2457 19.5596 65.016 31.3421 65.2329 35.0321C65.3151 36.4721 65.188 36.4496 64.7617 37.1696C64.7617 37.1696 64.5748 37.6346 64.4177 38.6396C64.9188 39.7121 63.9316 40.9946 63.9316 40.9946C64.1709 41.3471 64.3878 41.5421 64.8963 41.6546C66.2948 41.9471 67.6334 41.9321 68.7476 41.7521C69.4506 41.6321 69.8245 41.0771 70.004 40.3571C70.0489 40.0646 70.0862 39.3896 69.9367 38.5421C69.8619 38.1446 69.6675 37.4996 69.5628 37.3046C69.5029 36.8471 69.4431 36.4271 69.4057 36.1196C69.2262 34.6421 69.2113 32.7971 69.1814 32.0171C69.0692 29.3246 69.1814 22.2071 69.1814 22.2071L72.0306 22.9121L72.0231 22.8971Z" fill="#FDBE9C"/>
<path d="M102.251 72.3063C102.251 72.3063 96.8144 63.0963 95.4085 59.8938C95.057 59.0988 94.3466 57.0063 94.3466 57.0063C94.2568 56.5863 94.2344 56.0013 94.2344 55.6562L94.3466 47.9688H98.8559V55.1313C98.8559 55.1313 100.015 59.8937 100.681 61.3037C101.451 62.9387 103.365 66.6063 104.779 68.7288C106.162 69.2313 106.304 70.9338 106.304 70.9338L102.259 72.2988L102.251 72.3063Z" fill="#FDBE9C"/>
<path d="M94.3379 47.9695L98.8548 47.9395V49.1995L94.3379 49.237V47.9695Z" fill="#F4937C"/>
<path d="M89.1299 28.3045L86.9538 27.2359C82.4062 25.0025 76.9149 26.8893 74.6878 31.4501L61.5984 58.2585C59.3715 62.8193 61.2528 68.3271 65.8004 70.5604L67.9765 71.6291C72.5241 73.8624 78.0157 71.9756 80.2428 67.4148L93.332 40.6064C95.559 36.0456 93.6775 30.5378 89.1299 28.3045Z" fill="#685959"/>
<path d="M73.318 104.129H67.9785V108.861H73.318V104.129Z" fill="#FDBE9C"/>
<path d="M99.9173 108.735L93.1719 108.93V104.197H99.0049L99.9173 108.735Z" fill="#FDBE9C"/>
<path d="M36.9121 62.0922C36.9121 62.0922 39.2378 54.4122 42.9396 53.0922C46.7834 51.7272 50.3505 53.0547 54.486 56.2347C54.486 56.2347 49.2363 56.1522 45.6991 58.0197C42.1618 59.8872 36.9121 62.0922 36.9121 62.0922Z" fill="#80A67B"/>
<path d="M39.3068 73.9583C39.3068 73.9583 39.1797 70.1183 45.6708 69.1133C52.162 68.1158 58.0997 68.6108 60.3955 67.6133C60.8367 69.1808 55.8338 77.3633 49.0061 76.9958C42.1785 76.6283 42.2308 73.5008 39.3068 73.9658V73.9583Z" fill="#80A67B"/>
<path d="M79.8691 74.6914L92.7168 106.199C92.7168 106.199 97.0168 107.031 99.5818 105.291L88.7533 75.3439L79.8766 74.6914H79.8691Z" fill="#3E3837"/>
<path d="M98.6662 7.96429C96.6994 6.28431 91.7039 3.02181 88.7799 9.17179C86.5514 13.8668 89.5726 16.8818 84.5547 22.5443C84.5547 22.5443 93.7006 22.5443 94.4036 14.8793C95.0841 7.41681 97.0434 7.43181 98.7858 9.77179C100.109 11.5418 98.6662 7.97179 98.6662 7.97179V7.96429Z" fill="#513023"/>
<path d="M95.804 27.3458L90.457 23.9933L95.4824 17.7383L99.9993 19.6508L95.804 27.3458Z" fill="#FDBE9C"/>
<path d="M97.2834 24.6284C96.0195 24.3059 95.0399 22.3034 94.2322 21.4259C93.6489 20.7884 92.8188 21.8609 92.8188 21.8609L91.5625 22.6259L96.0719 16.2734L100.611 18.1784L97.2908 24.6359L97.2834 24.6284Z" fill="#F4937C"/>
<path d="M94.0772 10.4398C94.3614 10.1323 94.6605 8.97729 94.8475 8.63229C96.9264 4.9048 99.3868 2.8498 103.56 4.6123C108.114 6.5398 105.369 8.75229 103.447 13.3198C101.526 17.8873 101.645 21.4048 96.8367 20.2648C91.6991 19.0498 91.7066 12.9673 94.0697 10.4398H94.0772Z" fill="#6B4132"/>
<path d="M107.162 13.5603C105.48 16.3278 104.553 16.8978 102.975 16.3503L104.238 5.07031C107.312 6.27781 108.247 9.44281 108.12 12.0453C108.082 12.8178 108.045 12.1053 107.162 13.5603Z" fill="#513023"/>
<path d="M105.092 19.3342C104.614 20.4667 102.535 22.6717 101.592 23.1967C101.188 23.4217 100.762 23.7292 99.8274 23.6392C98.9749 23.5567 97.7634 23.2642 97.1427 23.9017C96.8062 24.2467 97.2549 23.4892 96.9707 23.3092C93.9271 21.3442 93.0446 16.9192 94.2038 14.1517L96.5594 10.6117C97.8307 7.58166 101.263 6.11167 104.18 7.34917C107.096 8.57916 108.442 12.0667 107.171 15.0967L105.1 19.3417L105.092 19.3342Z" fill="#F4937C"/>
<path d="M105.301 19.3347C103.851 22.4697 101.428 24.6747 98.1971 23.1747C94.4355 21.4272 94.9964 17.1372 96.3724 14.1522L97.6586 11.6022C99.0346 8.61718 101.577 6.10469 104.456 7.43969C107.328 8.77468 108.554 12.3072 107.171 15.2847L105.301 19.3272V19.3347Z" fill="#FDBE9C"/>
<path d="M95.7283 10.013C93.1633 8.31051 100.926 5.55052 101.771 5.61802C102.347 5.66302 102.145 4.02802 103.775 4.69552C105.338 5.33302 106.871 6.38302 107.641 7.55301C108.703 9.16551 108.741 9.41301 107.716 10.4705C105.458 12.818 98.0541 11.558 95.7283 10.013Z" fill="#6B4132"/>
<path d="M98.0752 11.2565C97.4246 12.674 97.1254 13.0865 96.9011 13.319C96.4972 13.724 96.2505 13.3865 96.3327 13.0415C96.4374 12.584 96.4972 11.864 95.6372 11.159C95.54 11.084 98.3294 10.709 98.3294 10.709L98.0826 11.2565H98.0752Z" fill="#6B4132"/>
<path d="M99.7616 12.7559L99.627 13.2008L102.066 13.9442L102.202 13.4993L99.7616 12.7559Z" fill="#6B4132"/>
<path d="M105.05 14.752L104.832 15.1619L106.731 16.1813L106.949 15.7714L105.05 14.752Z" fill="#6B4132"/>
<path d="M103.007 8.89467C101.429 10.0047 102.184 12.0072 100.187 11.6697C98.5121 11.3847 98.0933 11.5497 97.3007 12.7647C96.7473 13.6122 96.0742 10.2972 96.0742 10.2972C96.0742 10.2972 96.5005 8.06217 96.8968 8.03967C97.2932 8.01717 99.9853 8.62467 100.277 8.60217C100.576 8.58717 103.007 8.88717 103.007 8.88717V8.89467Z" fill="#6B4132"/>
<path d="M101.929 18.8771C102.49 19.1096 103.126 18.9221 103.268 18.5096C103.32 18.3596 103.268 18.1421 102.998 18.1721C102.871 18.1871 102.572 18.1421 102.281 18.0221C101.989 17.9021 101.862 17.7671 101.727 17.6396C101.428 17.3621 101.241 17.4896 101.174 17.6246C100.979 18.0071 101.368 18.6296 101.922 18.8696L101.929 18.8771Z" fill="#F4937C"/>
<path d="M99.992 14.6692C99.8798 14.9392 100.007 15.2467 100.276 15.3592C100.545 15.4717 100.852 15.3517 100.972 15.0817C101.091 14.8117 100.957 14.5042 100.687 14.3917C100.418 14.2792 100.112 14.3992 99.992 14.6692Z" fill="#6B4132"/>
<path d="M104.41 16.5832C104.298 16.8532 104.425 17.1607 104.694 17.2732C104.963 17.3857 105.27 17.2657 105.39 16.9957C105.509 16.7257 105.375 16.4182 105.105 16.3057C104.836 16.1932 104.53 16.3132 104.41 16.5832Z" fill="#6B4132"/>
<path d="M104.036 16.2907C104.036 16.2907 104.111 16.3132 104.148 16.3057C104.148 16.3057 104.484 16.2457 104.941 16.4407C105.27 16.5757 105.569 16.8907 105.576 16.8907C105.651 16.9732 105.778 16.9732 105.86 16.8907C105.943 16.8157 105.943 16.6882 105.86 16.6057C105.845 16.5907 105.494 16.2307 105.098 16.0657C104.529 15.8257 104.096 15.9082 104.073 15.9082C103.968 15.9307 103.894 16.0357 103.916 16.1407C103.931 16.2082 103.976 16.2607 104.036 16.2832V16.2907Z" fill="#6B4132"/>
<path d="M93.5375 12.3829C93.8516 11.4229 94.5695 10.8754 95.3548 11.0704C96.14 11.2654 96.6335 12.3454 96.3194 13.3054C96.0054 14.2654 95.1304 14.8354 94.3601 14.5804C93.5899 14.3254 93.2234 13.3429 93.5301 12.3829H93.5375Z" fill="#F4937C"/>
<path d="M94.2112 14.0473C94.1289 14.2948 93.9046 14.4448 93.7027 14.3773C93.5008 14.3098 93.411 14.0548 93.4933 13.8148C93.5755 13.5748 93.7625 13.4248 93.9644 13.4773C94.1663 13.5298 94.2934 13.8073 94.2112 14.0548V14.0473Z" fill="white"/>
<path d="M99.3775 14.2494C99.3775 14.2494 99.4306 14.2644 99.453 14.2644C99.453 14.2644 99.9914 14.2644 100.47 14.4744C100.799 14.6094 101.097 14.9244 101.105 14.9244C101.18 15.0069 101.307 15.0069 101.389 14.9244C101.471 14.8494 101.471 14.7219 101.389 14.6394C101.374 14.6244 101.023 14.2644 100.626 14.0994C100.073 13.8669 99.4822 13.8594 99.4597 13.8594C99.3475 13.8594 99.2578 13.9494 99.2578 14.0619C99.2578 14.1444 99.3102 14.2194 99.3775 14.2494Z" fill="#6B4132"/>
<path d="M103.049 16.7392C102.585 16.5217 102.137 17.8342 102.137 17.8342L102.286 18.0292C102.683 18.1792 103.191 18.4042 103.505 17.9617C103.819 17.5192 103.767 17.0692 103.049 16.7392Z" fill="#FDBE9C"/>
<path d="M69.2184 45.4883C69.2184 45.4883 65.2998 51.9008 64.9184 53.0558C64.537 54.2108 63.6097 58.4558 64.552 60.9008C64.552 60.9008 67.3563 102.811 67.5059 104.131C67.6555 105.451 72.6435 105.428 73.7503 104.266C74.8496 103.103 73.2642 68.5283 73.2642 68.5283L69.2259 45.4883H69.2184Z" fill="#3E3837"/>
<path d="M71.9713 17.318L71.1113 24.6305L78.5972 27.5255L83.6899 20.408C83.6899 20.408 75.733 17.468 71.9788 17.3105L71.9713 17.318Z" fill="#069D48"/>
<path d="M71.1628 99.4484C67.3115 99.4484 62.1964 97.5284 58.0833 95.9759C56.7821 95.4884 55.6529 95.0609 54.8079 94.7984C50.3807 93.4109 40.5992 93.3959 40.502 93.3959V91.3409C40.9133 91.3409 50.6948 91.3559 55.4211 92.8409C56.326 93.1259 57.4776 93.5534 58.8087 94.0559C63.4976 95.8184 72.2173 99.1034 74.199 96.3284C77.3248 91.9559 70.2879 85.5209 67.2891 82.7759C66.9675 82.4834 66.6908 82.2284 66.459 82.0034C63.7444 79.4309 56.7447 70.9259 54.3741 66.7634L54.2919 66.6134C51.8166 62.2634 47.2025 54.1784 50.4331 47.3834C53.4917 40.9559 57.9039 38.9609 59.1677 38.9609V41.0159C59.1677 41.0159 59.2051 41.0159 59.2275 41.0159C58.4872 41.1209 54.92 42.7334 52.2877 48.2684C49.5207 54.0884 53.7833 61.5734 56.0717 65.5934L56.154 65.7434C58.4049 69.6959 65.2924 78.0734 67.8649 80.5034C68.0893 80.7134 68.3585 80.9609 68.6726 81.2459C72.0827 84.3659 80.0543 91.6634 75.8665 97.5209C74.8644 98.9159 73.1894 99.4484 71.1628 99.4484Z" fill="#8D8080"/>
<path d="M91.5565 22.6266C91.5565 22.6266 90.7115 23.4141 83.6819 20.4141L76.6523 30.2466L94.9217 42.4791L100.673 33.1941C100.673 33.1941 96.2977 28.3416 96.6343 25.8291L91.5565 22.6341V22.6266Z" fill="#FDBE9C"/>
<path d="M81.9334 19.8005C81.9334 19.8005 75.8012 27.218 71.1046 39.833C66.4082 52.4555 64.1349 58.9355 64.4938 64.1105C64.8154 68.768 65.9147 71.2655 68.8312 72.848C72.4357 74.8055 83.0925 77.198 86.6821 76.8005C88.948 76.5455 89.3892 75.3305 89.6585 73.0205C89.9277 70.7105 86.368 55.4105 87.9085 51.173C89.4491 46.9355 99.2306 34.3355 100.674 33.188C100.674 33.188 97.8995 29.333 97.1666 27.968L89.5313 33.668L89.2397 22.538C89.2397 22.538 82.8607 20.108 81.9334 19.793V19.8005Z" fill="#685959"/>
<path d="M68.8377 72.9981C68.8377 72.9981 68.8003 72.9981 68.7778 72.9831C66.3175 71.9331 64.9938 69.6681 64.4928 65.6481C63.7898 59.9931 66.811 51.3831 66.8409 51.3006C66.8708 51.2256 66.9531 51.1806 67.0279 51.2106C67.1027 51.2406 67.1475 51.3231 67.1176 51.3981C67.0877 51.4806 64.0889 60.0306 64.7844 65.6181C65.2705 69.5256 66.5344 71.7156 68.89 72.7206C68.9648 72.7506 69.0022 72.8406 68.9648 72.9156C68.9423 72.9681 68.89 73.0056 68.8301 73.0056L68.8377 72.9981Z" fill="#069D48"/>
<path d="M60.9774 38.3105H59.908C59.495 38.3105 59.1602 38.6463 59.1602 39.0605V40.8155C59.1602 41.2298 59.495 41.5655 59.908 41.5655H60.9774C61.3904 41.5655 61.7252 41.2298 61.7252 40.8155V39.0605C61.7252 38.6463 61.3904 38.3105 60.9774 38.3105Z" fill="#544545"/>
<path d="M33.9433 110.272C34.7652 110.272 35.4314 109.604 35.4314 108.78C35.4314 107.955 34.7652 107.287 33.9433 107.287C33.1214 107.287 32.4551 107.955 32.4551 108.78C32.4551 109.604 33.1214 110.272 33.9433 110.272Z" fill="#685959"/>
<path d="M26.5702 110.272C27.3921 110.272 28.0584 109.604 28.0584 108.78C28.0584 107.955 27.3921 107.287 26.5702 107.287C25.7483 107.287 25.082 107.955 25.082 108.78C25.082 109.604 25.7483 110.272 26.5702 110.272Z" fill="#685959"/>
<path d="M69.7497 41.0093H72.7858C73.1448 41.0093 73.4888 41.1593 73.7431 41.4143L131.782 102.239L133.48 100.612L74.8425 39.1943C74.5133 38.8493 74.0646 38.6543 73.586 38.6543H69.9516C69.9516 38.6543 70.0488 39.1568 70.0338 39.9293C70.0338 40.3793 69.7497 41.0018 69.7422 41.0093H69.7497Z" fill="#8D8080"/>
<path d="M64.4191 38.6406L61.7344 38.6631V41.0181H63.933C63.933 41.0181 64.1947 40.5981 64.277 40.4181C64.8304 39.2856 64.4191 38.6481 64.4191 38.6481V38.6406Z" fill="#8D8080"/>
<path d="M78.1936 108.795H60.5901C60.2307 108.795 59.9395 109.087 59.9395 109.447V109.62C59.9395 109.98 60.2307 110.272 60.5901 110.272H78.1936C78.5533 110.272 78.8442 109.98 78.8442 109.62V109.447C78.8442 109.087 78.5533 108.795 78.1936 108.795Z" fill="#3E3837"/>
<path d="M40.9577 78.2466C40.9577 78.2466 40.135 74.8266 34.1674 75.5391C28.2072 76.2441 23.0921 78.1416 20.8262 77.8266C20.8187 79.3191 27.2276 85.2966 33.1504 83.3016C39.0806 81.2991 38.273 78.5616 40.9577 78.2541V78.2466Z" fill="#80A67B"/>
<path d="M106.274 108.795H88.6701C88.3112 108.795 88.0195 109.087 88.0195 109.447V109.62C88.0195 109.98 88.3112 110.272 88.6701 110.272H106.274C106.634 110.272 106.925 109.98 106.925 109.62V109.447C106.925 109.087 106.634 108.795 106.274 108.795Z" fill="#3E3837"/>
<path d="M106.654 109.619C106.654 107.286 104.336 105.396 101.472 105.396C98.6073 105.396 96.2891 107.286 96.2891 109.619" fill="#3E3837"/>
<path d="M70.3043 109.619C70.3043 107.286 67.9861 105.396 65.1219 105.396C62.2577 105.396 59.9395 107.286 59.9395 109.619" fill="#3E3837"/>
<path d="M40.2928 93.4041C40.2779 93.1416 38.9318 66.9291 33.7344 49.2216L34.1382 49.1016C39.3505 66.8616 40.6966 93.1191 40.7116 93.3816L40.2928 93.4041Z" fill="#80A67B"/>
<path d="M88.4796 51.9518L91.0559 54.6796C91.9353 55.6107 91.8957 57.0845 90.9669 57.9665L90.6304 58.2862C90.169 58.7247 89.4346 58.7101 88.9919 58.2418L84.8213 53.8261C84.3838 53.3632 84.3987 52.6262 84.8654 52.1827L85.2019 51.8629C86.1299 50.9809 87.6002 51.0207 88.4796 51.9518Z" fill="#544545"/>
<path d="M46.2536 73.8749C47.9222 73.8749 49.2749 72.6258 49.2749 71.0849C49.2749 69.544 47.9222 68.2949 46.2536 68.2949C44.585 68.2949 43.2324 69.544 43.2324 71.0849C43.2324 72.6258 44.585 73.8749 46.2536 73.8749Z" fill="#069D48"/>
<path d="M33.2343 73.0048C36.2032 70.4623 48.9611 71.0848 48.9611 71.0848L45.2444 107.955H27.5957C25.7636 107.955 24.2754 106.462 24.2754 104.625C24.2754 104.625 26.818 78.5023 33.2418 73.0048H33.2343Z" fill="#069D48"/>
<path d="M38.1915 106.822H24.6857C24.3016 106.822 23.9902 107.134 23.9902 107.52V107.7C23.9902 108.085 24.3016 108.397 24.6857 108.397H38.1915C38.5755 108.397 38.8869 108.085 38.8869 107.7V107.52C38.8869 107.134 38.5755 106.822 38.1915 106.822Z" fill="#685959"/>
<path d="M39.4918 73.0042C41.5857 71.2117 46.7009 71.0392 49.5277 71.0917C50.6195 71.1142 51.4944 72.0067 51.4944 73.1092V107.962H33.8457C32.0136 107.962 30.5254 106.469 30.5254 104.632C30.5254 104.632 33.068 78.5092 39.4918 73.0117V73.0042Z" fill="#25764A"/>
<path d="M45.0118 106.822H31.506C31.1219 106.822 30.8105 107.134 30.8105 107.52V107.7C30.8105 108.085 31.1219 108.397 31.506 108.397H45.0118C45.3958 108.397 45.7072 108.085 45.7072 107.7V107.52C45.7072 107.134 45.3958 106.822 45.0118 106.822Z" fill="#544545"/>
<path d="M43.5898 108.059C43.5898 99.7645 47.1719 98.1895 51.5841 98.1895C51.5841 100.139 51.5841 102.607 51.5841 108.059H43.5898Z" fill="#544545"/>
<path d="M50.5384 110.393C53.4667 110.393 55.8405 108.012 55.8405 105.075C55.8405 102.138 53.4667 99.7578 50.5384 99.7578C47.6102 99.7578 45.2363 102.138 45.2363 105.075C45.2363 108.012 47.6102 110.393 50.5384 110.393Z" fill="#685959"/>
<path d="M51.0556 110.393C53.6989 110.393 55.8417 108.012 55.8417 105.075C55.8417 102.138 53.6989 99.7578 51.0556 99.7578C48.4124 99.7578 46.2695 102.138 46.2695 105.075C46.2695 108.012 48.4124 110.393 51.0556 110.393Z" fill="#7F6C6C"/>
<path d="M51.4952 108.233C53.1472 108.233 54.4865 106.819 54.4865 105.075C54.4865 103.332 53.1472 101.918 51.4952 101.918C49.8431 101.918 48.5039 103.332 48.5039 105.075C48.5039 106.819 49.8431 108.233 51.4952 108.233Z" fill="#D8C7C7"/>
<path d="M51.6758 106.275C52.3035 106.275 52.8125 105.738 52.8125 105.075C52.8125 104.412 52.3035 103.875 51.6758 103.875C51.048 103.875 50.5391 104.412 50.5391 105.075C50.5391 105.738 51.048 106.275 51.6758 106.275Z" fill="#069D48"/>
<path d="M31.5289 81.7878C32.4712 81.9453 33.4134 81.0003 33.6303 79.6728C33.8472 78.3453 33.2713 77.1453 32.3291 76.9878L31.7159 76.8828L30.9082 81.6828L31.5214 81.7878H31.5289Z" fill="#7F6C6C"/>
<path d="M33.0207 79.5689C33.2429 78.2452 32.6604 77.0437 31.7196 76.8847C30.7788 76.7257 29.8359 77.6699 29.6137 78.9929C29.3914 80.3167 29.974 81.5182 30.9148 81.6772C31.8556 81.8362 32.7985 80.8919 33.0207 79.5689Z" fill="#685959"/>
<path d="M25.6503 93.106C25.5979 93.106 25.5456 93.106 25.4932 93.091C25.4035 93.076 23.3171 92.7535 21.1558 91.636C18.1571 90.0835 16.4894 87.7585 16.3249 84.916C16.2127 82.921 16.7586 81.3235 17.9552 80.1685C20.58 77.641 25.7475 77.7535 30.9524 78.256C31.5132 78.3085 31.932 78.811 31.8722 79.381C31.8198 79.9435 31.3113 80.3635 30.7505 80.3035C26.5252 79.8985 21.4176 79.681 19.376 81.646C18.6207 82.3735 18.2917 83.401 18.3739 84.796C18.6656 89.9185 25.7176 91.0435 25.7924 91.051C26.3532 91.1335 26.7421 91.6585 26.6524 92.221C26.5776 92.731 26.1364 93.0985 25.6353 93.0985L25.6503 93.106Z" fill="#8D8080"/>
<path d="M25.6348 94.7386C25.6348 94.7386 26.0909 92.5861 26.3003 91.0261C26.4723 89.7586 27.9455 91.6561 27.9455 91.6561L27.7661 95.2186L25.6348 94.7386Z" fill="#069D48"/>
<path d="M101.204 21.1715C99.581 21.1715 98.7883 19.889 98.7808 19.874C98.736 19.8065 98.7584 19.7165 98.8332 19.6715C98.9005 19.6265 98.9902 19.649 99.0351 19.724C99.0725 19.7915 100.06 21.374 102.176 20.7215C102.251 20.699 102.333 20.744 102.363 20.819C102.385 20.894 102.34 20.9765 102.266 20.999C101.884 21.119 101.533 21.164 101.211 21.164L101.204 21.1715Z" fill="#F4937C"/>
<path d="M66.2793 86.3538L65.4492 74.2188L73.8024 82.3713L74.1016 93.9363L66.2793 86.3538Z" fill="#3E3837"/>
<path d="M100.672 33.1875C100.672 33.1875 101.801 34.335 101.831 37.83C101.861 41.325 101.218 47.85 101.218 47.85C101.218 47.85 96.6334 48.555 92.9766 47.82L93.171 42.6075C93.171 42.6075 99.3705 34.2075 100.672 33.1875Z" fill="#069D48"/>
<path d="M93.0525 38.1967L89.6207 35.8027L88.6426 37.2127L92.0744 39.6067L93.0525 38.1967Z" fill="#FFFAF7"/>
<path d="M91.1451 31.439L87.4434 31.589L87.7874 21.8765L90.3524 21.7715L91.1451 31.439Z" fill="#069D48"/>
<path d="M92.2061 34.7543L91.1367 31.4093L97.1717 27.9668L98.6225 30.0668L92.2061 34.7543Z" fill="#069D48"/>
<path d="M89.4844 31.5077L89.5367 33.6677L91.4512 32.3927L91.1371 31.4102L89.4844 31.5077Z" fill="#25764A"/>
<path d="M138.387 104.992H141.752C143.068 104.992 144.145 106.065 144.145 107.392V107.707H138.387V104.992Z" fill="#544545"/>
<path d="M141.556 104.992H138.617C137.974 104.992 137.369 104.722 136.935 104.249L133.712 100.657C133.585 100.514 133.36 100.499 133.218 100.634L131.737 102.007C131.595 102.134 131.588 102.352 131.715 102.494L133.966 105.029C135.163 106.327 136.778 107.707 138.244 107.707H142.798V106.244C142.798 105.554 142.237 104.992 141.549 104.992H141.556Z" fill="#685959"/>
<path d="M140.217 107.01H146.708C147.852 107.01 148.787 107.94 148.787 109.095V109.507C148.787 110.085 148.323 110.55 147.747 110.55H140.217V107.01Z" fill="#544545"/>
<path d="M138.633 107.01H143.038C143.726 107.01 144.287 107.572 144.287 108.262V109.927C144.287 110.272 144.01 110.55 143.666 110.55H136.771C136.427 110.55 136.15 110.272 136.15 109.927V109.515C136.15 108.135 137.265 107.017 138.641 107.017L138.633 107.01Z" fill="#6F6161"/>
<path d="M69.1656 22.2156L69.0684 21.0156L71.4689 21.5256L71.3418 22.7631L69.1656 22.2156Z" fill="#F4937C"/>
<path d="M92.984 47.8197C92.984 47.8197 94.1506 48.0372 94.7639 48.0597L94.7489 40.4922L93.171 42.6147L92.9766 47.8272L92.984 47.8197Z" fill="#25764A"/>
<path d="M71.1035 24.6302L77.1534 26.9702L77.8713 25.7552L71.283 23.1602L71.1035 24.6302Z" fill="#25764A"/>
<path d="M62.6236 66.929C62.5788 66.929 62.5264 66.9065 62.504 66.8615C62.4367 66.764 60.8887 64.4015 60.9934 61.1315C61.0981 57.869 66.1982 48.9665 66.4151 48.5915C66.4525 48.524 66.5422 48.494 66.617 48.539C66.6843 48.5765 66.7142 48.6665 66.6694 48.7415C66.617 48.8315 61.3822 57.9515 61.285 61.1465C61.1878 64.319 62.7358 66.6815 62.7508 66.704C62.7956 66.7715 62.7807 66.8615 62.7134 66.9065C62.6909 66.9215 62.661 66.929 62.6311 66.929H62.6236Z" fill="#25764A"/>
<path d="M64.1049 40.7246C64.1049 40.7246 64.6209 40.8971 64.9051 40.8296C65.1893 40.7621 65.2641 40.7246 65.2641 40.7246C65.2641 40.7246 65.4435 41.0846 66.0493 41.2046C66.655 41.3246 67.0514 40.9871 67.0887 40.9196C67.0887 40.9196 67.2009 41.1896 67.6122 41.2796C68.0235 41.3696 68.3675 41.0021 68.3675 41.0021C68.3675 41.0021 68.734 41.2046 69.1901 41.1821C69.6463 41.1596 69.7361 41.0096 69.7361 41.0096C69.7361 41.0096 69.5192 41.5421 68.8387 41.7221C68.1581 41.9021 66.5802 41.8946 66.0268 41.8196C65.4734 41.7446 64.5985 41.6846 64.2994 41.4371C64.0002 41.1896 63.918 41.0096 63.918 41.0096L64.09 40.7246H64.1049Z" fill="#F2B08E"/>
<path d="M104.771 70.5511C104.771 70.5511 105.085 71.8561 105.137 72.3061C105.19 72.7561 105.818 73.1461 105.967 72.5536C106.117 71.9611 106.416 71.5036 106.296 70.9411C106.177 70.3786 104.629 69.9586 104.771 70.5511Z" fill="#FDBE9C"/>
<path d="M104.09 72.824C103.941 72.689 103.836 72.509 103.791 72.314C103.769 72.2315 103.761 72.149 103.739 72.074C103.724 72.059 103.717 72.0515 103.702 72.0365C103.56 71.939 103.41 71.849 103.283 71.729C103.118 71.579 102.999 71.3765 102.864 71.189L102.916 71.2565C102.236 71.354 101.899 70.919 101.667 70.6715C101.077 70.0565 100.456 69.3965 100.456 69.3965C100.456 69.3965 100.269 70.8215 101.623 72.5465C102.213 73.2965 103.896 73.469 104.704 73.2965C104.472 73.184 104.292 72.989 104.098 72.8165L104.09 72.824Z" fill="#FDBE9C"/>
<path d="M102.347 71.9241C101.45 71.9241 100.837 71.0316 100.807 70.9866C100.672 70.7841 100.725 70.5141 100.927 70.3716C101.129 70.2366 101.398 70.2891 101.54 70.4916C101.547 70.5066 101.966 71.0841 102.407 71.0391C102.826 70.9941 102.946 70.7616 102.946 70.7616C103.028 70.5366 103.282 70.4166 103.514 70.5066C103.738 70.5891 103.858 70.8441 103.768 71.0766C103.664 71.3466 103.282 71.8341 102.497 71.9166C102.445 71.9166 102.4 71.9241 102.355 71.9241H102.347Z" fill="#FDBE9C"/>
<path d="M102.767 72.7578C101.952 72.7578 101.66 72.2553 101.623 72.1953L102.401 71.7753C102.401 71.7753 102.401 71.7678 102.386 71.7528C102.386 71.7528 102.505 71.9028 102.902 71.8653C103.545 71.7978 104.211 71.4903 104.218 71.4903C104.435 71.3853 104.697 71.4903 104.801 71.7078C104.906 71.9253 104.801 72.1878 104.584 72.2928C104.555 72.3078 103.777 72.6603 102.992 72.7428C102.909 72.7503 102.835 72.7578 102.76 72.7578H102.767Z" fill="#FDBE9C"/>
<path d="M104.405 73.4101C104.009 73.4101 103.463 73.3426 102.782 73.2151H102.745C102.536 73.1776 102.371 72.9901 102.371 72.7726C102.371 72.5326 102.566 72.3301 102.812 72.3301C102.812 72.3301 102.865 72.3301 102.954 72.3451C104.166 72.5776 104.57 72.5326 104.667 72.5101C104.906 72.4576 105.138 72.6076 105.19 72.8476C105.243 73.0876 105.093 73.3201 104.854 73.3726C104.734 73.4026 104.585 73.4101 104.398 73.4101H104.405Z" fill="#FDBE9C"/>
<path d="M35.5733 55.5165C35.5733 55.5165 29.6505 53.349 28.0576 46.194C26.4647 39.039 26.1357 33.6165 23.9894 32.5365C21.8432 31.4565 46.7383 38.529 35.5733 55.5165Z" fill="#80A67B"/>
<path d="M37.8249 66.9144C37.8249 66.9144 37.9371 63.3969 32.0068 62.4819C26.0765 61.5669 20.6398 62.0244 18.5385 61.1094C18.1346 62.5419 22.7113 70.0269 28.9557 69.6894C35.2 69.3519 35.1551 66.4944 37.8249 66.9144Z" fill="#80A67B"/>
</g>
</g>
<defs>
<clipPath id="clip0_13671_4079">
<rect width="172" height="120" fill="white"/>
</clipPath>
</defs>
</svg>
