<svg width="14" height="10" viewBox="0 0 14 10" fill="none" xmlns="http://www.w3.org/2000/svg">
<path d="M13.5579 5.25713L9.12017 2.215C8.91523 2.07441 8.70873 2 8.53709 2C8.20527 2 8 2.26667 8 2.71305V9.28799C8 9.73385 8.20501 10 8.53606 10C8.70796 10 8.91115 9.92553 9.11655 9.78455L13.5564 6.74248C13.8419 6.54652 14 6.28283 14 5.99964C14.0001 5.71665 13.8438 5.45302 13.5579 5.25713Z" fill="white"/>
<path d="M0.442092 3.25713L4.87983 0.214996C5.08477 0.0744069 5.29127 0 5.46291 0C5.79473 0 6 0.266673 6 0.71305V7.28799C6 7.73385 5.79499 8 5.46394 8C5.29204 8 5.08885 7.92553 4.88345 7.78455L0.443644 4.74248C0.158121 4.54652 -4.76837e-07 4.28283 -4.76837e-07 3.99964C-6.48499e-05 3.71665 0.156245 3.45302 0.442092 3.25713Z" fill="white"/>
</svg>
