<svg width="40" height="40" viewBox="0 0 40 40" fill="none" xmlns="http://www.w3.org/2000/svg">
<ellipse cx="20.0013" cy="20" rx="20.0013" ry="20" transform="matrix(-1 0 0 1 40.002 0)" fill="#069D48"/>
<path d="M26.5579 20.2571L22.1202 17.215C21.9152 17.0744 21.7087 17 21.5371 17C21.2053 17 21 17.2667 21 17.713V24.288C21 24.7338 21.205 25 21.5361 25C21.708 25 21.9112 24.9255 22.1165 24.7846L26.5564 21.7425C26.8419 21.5465 27 21.2828 27 20.9996C27.0001 20.7167 26.8438 20.453 26.5579 20.2571Z" fill="white"/>
<path d="M13.4421 18.2571L17.8798 15.215C18.0848 15.0744 18.2913 15 18.4629 15C18.7947 15 19 15.2667 19 15.713V22.288C19 22.7338 18.795 23 18.4639 23C18.292 23 18.0888 22.9255 17.8835 22.7846L13.4436 19.7425C13.1581 19.5465 13 19.2828 13 18.9996C12.9999 18.7167 13.1562 18.453 13.4421 18.2571Z" fill="white"/>
</svg>
