<svg width="34" height="43" viewBox="0 0 34 43" fill="none" xmlns="http://www.w3.org/2000/svg">
<path d="M8.0389 14.9413C10.2457 12.9789 12.4726 10.9592 14.1615 8.52614C14.0729 8.86074 13.9648 9.20391 13.8373 9.55728C13.2939 11.0557 12.2672 12.8736 11.147 14.8571L11.0985 14.943L11.0983 14.9434L11.0527 15.024C7.82007 20.7359 3.64941 28.1052 6.85397 35.914C7.00747 36.2881 7.17416 36.6566 7.3537 37.0188C5.07094 36.1987 3.12216 34.8818 1.94181 32.8203L1.94172 32.8201C0.479952 30.2691 0.105925 27.1159 0.928942 24.2949C2.02131 20.5537 4.99112 17.6515 8.0389 14.9413Z" fill="#2D9AFF" stroke="black"/>
<path d="M27.3389 38.7227C29.2622 35.6277 29.5061 31.7603 28.9522 28.1007C28.2794 23.656 26.4151 19.396 24.7596 16.9113L24.2877 16.203L23.8987 16.96C22.7481 19.1995 20.9385 21.0844 19.1032 22.9961L19.0584 23.0428C17.2314 24.9459 15.3738 26.8879 14.3172 29.1767L14.3171 29.1769C12.7706 32.5316 13.0463 36.729 16.0527 40.0765C13.8828 39.1674 11.9525 37.3831 10.7062 34.3464L10.2436 34.5363L10.7062 34.3464C9.02104 30.241 10.1227 26.0786 12.0151 22.0604C12.8371 20.3149 13.7963 18.6206 14.7232 16.9834C14.8619 16.7384 14.9999 16.4946 15.1367 16.2521C16.1796 14.4024 17.1525 12.6196 17.7519 10.9692L17.7519 10.9692C18.9991 7.53494 18.9368 4.45059 17.4862 1.35774C23.5201 5.20811 28.4011 11.5928 30.9052 18.1946C33.6277 25.3725 33.4883 32.6386 29.2169 37.1934L29.2168 37.1935C28.7144 37.7296 28.0778 38.2506 27.3389 38.7227Z" fill="#069D48" stroke="black"/>
<path d="M22.886 33.982C23.4163 32.2491 23.8093 30.5041 24.1054 28.8504C24.1089 30.1097 24.0244 31.5149 23.773 32.9491C23.2804 35.7598 22.1566 38.6395 19.8325 40.7687C21.1824 38.6948 22.1639 36.3413 22.886 33.982Z" fill="#2D9AFF" stroke="black"/>
</svg>
