<svg width="56" height="56" viewBox="0 0 56 56" fill="none" xmlns="http://www.w3.org/2000/svg">
<circle cx="28" cy="28" r="28" fill="#2D9AFF"/>
<path d="M39.1535 12H16.8465C14.1741 12 12 14.1741 12 16.8465V39.1535C12 41.8259 14.1741 44 16.8465 44H39.1535C41.8259 44 44 41.8259 44 39.1535V16.8465C44 14.1741 41.8259 12 39.1535 12ZM42.805 39.1535C42.805 41.1669 41.1669 42.805 39.1535 42.805H16.8465C14.8331 42.805 13.195 41.1669 13.195 39.1535V16.8465C13.195 14.8331 14.8331 13.195 16.8465 13.195H39.1535C41.1669 13.195 42.805 14.8331 42.805 16.8465V39.1535ZM26.9378 21.0954C26.9378 21.4255 26.6703 21.6929 26.3403 21.6929C26.0102 21.6929 25.7427 21.4255 25.7427 21.0954C25.7427 18.5329 23.658 16.4481 21.0954 16.4481C18.5329 16.4481 16.4481 18.5329 16.4481 21.0954C16.4481 25.1163 21.2199 27.2106 24.1865 24.5658C24.4328 24.3462 24.8106 24.3679 25.0301 24.6142C25.2497 24.8605 25.228 25.2382 24.9817 25.4578C21.2519 28.7827 15.2531 26.1512 15.2531 21.0954C15.2531 17.874 17.874 15.2531 21.0954 15.2531C24.3169 15.2531 26.9378 17.874 26.9378 21.0954ZM18.9046 21.0954C18.9046 22.3035 19.8874 23.2863 21.0954 23.2863C22.3035 23.2863 23.2863 22.3035 23.2863 21.0954C23.2863 19.8874 22.3035 18.9046 21.0954 18.9046C19.8874 18.9046 18.9046 19.8874 18.9046 21.0954ZM22.0913 21.0954C22.0913 21.6445 21.6445 22.0913 21.0954 22.0913C20.5463 22.0913 20.0996 21.6445 20.0996 21.0954C20.0996 20.5463 20.5463 20.0996 21.0954 20.0996C21.6445 20.0996 22.0913 20.5463 22.0913 21.0954ZM32.9793 21.0954C32.9793 22.3035 33.9621 23.2863 35.1701 23.2863C36.3782 23.2863 37.361 22.3035 37.361 21.0954C37.361 19.8874 36.3782 18.9046 35.1701 18.9046C33.9621 18.9046 32.9793 19.8874 32.9793 21.0954ZM36.166 21.0954C36.166 21.6445 35.7192 22.0913 35.1701 22.0913C34.621 22.0913 34.1743 21.6445 34.1743 21.0954C34.1743 20.5463 34.621 20.0996 35.1701 20.0996C35.7192 20.0996 36.166 20.5463 36.166 21.0954ZM39.6024 17.289C42.8376 21.0531 40.1531 26.9378 35.1701 26.9378C31.9487 26.9378 29.3278 24.3169 29.3278 21.0954C29.3278 17.874 31.9487 15.2531 35.1701 15.2531C35.5002 15.2531 35.7676 15.5206 35.7676 15.8506C35.7676 16.1806 35.5002 16.4481 35.1701 16.4481C32.6076 16.4481 30.5228 18.5329 30.5228 21.0954C30.5228 23.658 32.6076 25.7427 35.1701 25.7427C39.1446 25.7427 41.2643 21.0558 38.6961 18.0679C38.481 17.8176 38.5095 17.4404 38.7598 17.2254C39.01 17.0103 39.3872 17.0387 39.6024 17.289ZM21.0954 32.9793C19.8874 32.9793 18.9046 33.9621 18.9046 35.1701C18.9046 36.3782 19.8874 37.361 21.0954 37.361C22.3035 37.361 23.2863 36.3782 23.2863 35.1701C23.2863 33.9621 22.3035 32.9793 21.0954 32.9793ZM21.0954 36.166C20.5463 36.166 20.0996 35.7192 20.0996 35.1701C20.0996 34.621 20.5463 34.1743 21.0954 34.1743C21.6445 34.1743 22.0913 34.621 22.0913 35.1701C22.0913 35.7192 21.6445 36.166 21.0954 36.166ZM25.2266 39.3012C24.9932 39.5346 24.615 39.5346 24.3815 39.3012C24.1482 39.0679 24.1482 38.6896 24.3815 38.4562C27.3022 35.5357 25.2078 30.5228 21.0954 30.5228C18.5329 30.5228 16.4481 32.6076 16.4481 35.1701C16.4481 37.7326 18.5329 39.8174 21.0954 39.8174C21.4255 39.8174 21.6929 40.0849 21.6929 40.4149C21.6929 40.745 21.4255 41.0124 21.0954 41.0124C17.874 41.0124 15.2531 38.3916 15.2531 35.1701C15.2531 31.9487 17.874 29.3278 21.0954 29.3278C26.2679 29.3278 28.8969 35.6309 25.2266 39.3012ZM33.444 37.2282C32.7484 37.2282 32.1826 37.7941 32.1826 38.4896C32.1826 39.1852 32.7484 39.751 33.444 39.751C34.1396 39.751 34.7054 39.1852 34.7054 38.4896C34.7054 37.7941 34.1396 37.2282 33.444 37.2282ZM38.0913 37.2282C37.3957 37.2282 36.8299 37.7941 36.8299 38.4896C36.8299 39.1852 37.3957 39.751 38.0913 39.751C38.7869 39.751 39.3527 39.1852 39.3527 38.4896C39.3527 37.7941 38.7869 37.2282 38.0913 37.2282ZM38.0913 32.5809C37.3957 32.5809 36.8299 33.1468 36.8299 33.8423C36.8299 34.5379 37.3957 35.1037 38.0913 35.1037C38.7869 35.1037 39.3527 34.5379 39.3527 33.8423C39.3527 33.1468 38.7869 32.5809 38.0913 32.5809Z" fill="white"/>
</svg>
