<svg width="56" height="56" viewBox="0 0 56 56" fill="none" xmlns="http://www.w3.org/2000/svg">
<circle cx="28" cy="28" r="28" fill="#2D9AFF"/>
<path d="M43.8546 27.9336L42.8948 26.9738L43.2341 26.6345C43.4231 26.4455 43.4231 26.1401 43.2341 25.951L42.8754 25.5923C41.8235 24.5404 40.2044 24.2447 38.852 24.8555C38.4545 25.03 38.0958 25.2772 37.7758 25.5923L33.733 29.6351L32.3127 28.2148C32.1237 28.0258 31.8183 28.0258 31.6292 28.2148L31.1154 28.7286L14.8909 12.4944C14.2317 11.8352 13.1604 11.8352 12.4963 12.4944C11.8322 13.1537 11.837 14.2298 12.4963 14.8891L28.7256 31.1184L28.2118 31.6323C28.0227 31.8213 28.0227 32.1267 28.2118 32.3158L29.6321 33.7361L25.5893 37.7789C25.2742 38.094 25.0221 38.4575 24.8525 38.8502C24.5519 39.5191 24.4598 40.2559 24.5956 40.9782C24.7216 41.7005 25.0658 42.3597 25.5893 42.8784L25.948 43.2371C26.045 43.3341 26.1661 43.3777 26.2922 43.3777C26.4182 43.3777 26.5394 43.3292 26.6363 43.2371L26.9757 42.8978L27.9355 43.8576C28.0324 43.9546 28.1536 43.9982 28.2796 43.9982C28.4057 43.9982 28.5269 43.9497 28.6238 43.8576L43.8594 28.6268C43.9515 28.5347 44 28.4135 44 28.2827C44 28.1518 43.9418 28.0209 43.8546 27.9336ZM13.1846 14.2008C12.9034 13.9196 12.9034 13.4591 13.1846 13.1779C13.3252 13.0422 13.5094 12.9695 13.6936 12.9695C13.8778 12.9695 14.062 13.0422 14.2026 13.1828L30.4319 29.4121L29.4091 30.4349L13.1846 14.2008ZM29.2394 31.9716L31.9734 29.2376L33.0496 30.3138L30.3156 33.0477L29.2394 31.9716ZM26.2728 42.1901C25.8947 41.812 25.6426 41.3321 25.5505 40.8037C25.4536 40.2753 25.5166 39.7324 25.7396 39.2428C25.8656 38.9568 26.045 38.695 26.2776 38.4672L38.4642 26.2807C38.6969 26.048 38.9586 25.8686 39.2446 25.7426C39.5888 25.5875 39.9572 25.5099 40.3256 25.5099C41.014 25.5099 41.6878 25.7765 42.1919 26.2758L42.2113 26.2952L26.2922 42.2046L26.2728 42.1901ZM28.2748 42.8251L27.6592 42.2095L42.2064 27.6622L42.8221 28.2778L28.2748 42.8251Z" fill="white"/>
</svg>
