<svg width="56" height="56" viewBox="0 0 56 56" fill="none" xmlns="http://www.w3.org/2000/svg">
<circle cx="28" cy="28" r="28" fill="#2D9AFF"/>
<path fill-rule="evenodd" clip-rule="evenodd" d="M41.9467 24.2058L43.252 25.8192C43.7435 26.4359 44.0111 27.2012 44.0111 27.9898C44.0111 28.7784 43.7435 29.5437 43.252 30.1605L41.9467 31.7738C41.6376 32.1534 41.4807 32.6344 41.5067 33.1232L41.6094 35.1912C41.6454 35.9802 41.4126 36.758 40.949 37.3975C40.4854 38.0369 39.8185 38.5001 39.0574 38.7112L37.0627 39.2538C36.588 39.383 36.1763 39.68 35.904 40.0898L34.7747 41.8205C34.3395 42.48 33.6935 42.9725 32.9424 43.2175C32.1912 43.4626 31.3791 43.4458 30.6387 43.1698L28.7027 42.4218C28.2499 42.2458 27.7475 42.2458 27.2947 42.4218L25.344 43.1698C24.6059 43.4459 23.7958 43.4627 23.0469 43.2174C22.2979 42.9722 21.6547 42.4796 21.2227 41.8205L20.0934 40.0898C19.8211 39.68 19.4094 39.383 18.9347 39.2538L16.94 38.7112C16.1789 38.5001 15.512 38.0369 15.0484 37.3975C14.5848 36.758 14.352 35.9802 14.388 35.1912L14.4907 33.1232C14.5166 32.6344 14.3598 32.1534 14.0507 31.7738L12.7454 30.1605C12.2539 29.5437 11.9863 28.7784 11.9863 27.9898C11.9863 27.2012 12.2539 26.4359 12.7454 25.8192L14.0507 24.2058C14.3598 23.8263 14.5166 23.3453 14.4907 22.8565L14.388 20.7885C14.352 19.9995 14.5848 19.2216 15.0484 18.5822C15.512 17.9427 16.1789 17.4796 16.94 17.2685L18.9347 16.7258C19.4094 16.5967 19.8211 16.2996 20.0934 15.8898L21.2227 14.1592C21.6579 13.4997 22.3038 13.0072 23.055 12.7621C23.8062 12.5171 24.6183 12.5339 25.3587 12.8098L27.2947 13.5578C27.7475 13.7338 28.2499 13.7338 28.7027 13.5578L30.6534 12.8098C31.3917 12.536 32.2011 12.5203 32.9495 12.7653C33.6979 13.0104 34.3413 13.5017 34.7747 14.1592L35.904 15.8898C36.1763 16.2996 36.588 16.5967 37.0627 16.7258L39.0574 17.2685C39.8185 17.4796 40.4854 17.9427 40.949 18.5822C41.4126 19.2216 41.6454 19.9995 41.6094 20.7885L41.5067 22.8565C41.4807 23.3453 41.6376 23.8263 41.9467 24.2058ZM40.8027 30.8498L42.108 29.2365C42.3928 28.8834 42.5481 28.4434 42.5481 27.9898C42.5481 27.5362 42.3928 27.0963 42.108 26.7432L40.8027 25.1298C40.2703 24.4671 39.999 23.6323 40.04 22.7832L40.1427 20.7152C40.1654 20.2612 40.0324 19.813 39.7657 19.4449C39.499 19.0769 39.1145 18.8109 38.676 18.6912L36.6814 18.1485C35.8579 17.9319 35.1459 17.4136 34.6867 16.6965L33.5427 14.9658C33.2968 14.5824 32.9261 14.2956 32.4931 14.154C32.0602 14.0123 31.5917 14.0245 31.1667 14.1885L29.2307 14.9218C28.4392 15.2347 27.5582 15.2347 26.7667 14.9218L24.8307 14.1885C24.6059 14.1023 24.3674 14.0576 24.1267 14.0565C23.7938 14.054 23.4657 14.1362 23.1733 14.2953C22.8808 14.4543 22.6336 14.6851 22.4547 14.9658L21.3107 16.6965C20.8515 17.4136 20.1395 17.9319 19.316 18.1485L17.3214 18.6912C16.8829 18.8109 16.4984 19.0769 16.2317 19.4449C15.965 19.813 15.8319 20.2612 15.8547 20.7152L15.9574 22.7832C15.9984 23.6323 15.7271 24.4671 15.1947 25.1298L13.8894 26.7432C13.6046 27.0963 13.4493 27.5362 13.4493 27.9898C13.4493 28.4434 13.6046 28.8834 13.8894 29.2365L15.1947 30.8498C15.7271 31.5126 15.9984 32.3474 15.9574 33.1965L15.8547 35.2645C15.8319 35.7185 15.965 36.1666 16.2317 36.5347C16.4984 36.9028 16.8829 37.1687 17.3214 37.2885L19.316 37.8312C20.1395 38.0478 20.8515 38.5661 21.3107 39.2832L22.4547 41.0138C22.7006 41.3973 23.0713 41.6841 23.5042 41.8257C23.9372 41.9673 24.4057 41.9551 24.8307 41.7912L26.7667 41.0578C27.5592 40.7499 28.4382 40.7499 29.2307 41.0578L31.1667 41.7912C31.5919 41.9529 32.0597 41.9639 32.4921 41.8225C32.9245 41.681 33.2953 41.3956 33.5427 41.0138L34.6867 39.2832C35.1459 38.5661 35.8579 38.0478 36.6814 37.8312L38.676 37.2885C39.1145 37.1687 39.499 36.9028 39.7657 36.5347C40.0324 36.1666 40.1654 35.7185 40.1427 35.2645L40.04 33.1965C39.999 32.3474 40.2703 31.5126 40.8027 30.8498ZM23.0851 33.9453L33.9531 23.0773C34.0912 22.9392 34.1688 22.7519 34.1688 22.5566C34.1688 22.3614 34.0912 22.1741 33.9531 22.036C33.815 21.8979 33.6277 21.8203 33.4325 21.8203C33.2372 21.8203 33.0499 21.8979 32.9118 22.036L22.0438 32.904C21.9057 33.0421 21.8281 33.2294 21.8281 33.4246C21.8281 33.6199 21.9057 33.8072 22.0438 33.9453C22.1819 34.0834 22.3692 34.161 22.5645 34.161C22.7597 34.161 22.947 34.0834 23.0851 33.9453ZM32.663 29.5898C32.0567 29.5898 31.4641 29.7696 30.96 30.1064C30.4559 30.4433 30.063 30.922 29.831 31.4821C29.599 32.0422 29.5383 32.6586 29.6566 33.2532C29.7748 33.8478 30.0668 34.394 30.4955 34.8227C30.9242 35.2514 31.4704 35.5433 32.065 35.6616C32.6596 35.7799 33.2759 35.7192 33.836 35.4872C34.3962 35.2552 34.8749 34.8623 35.2117 34.3582C35.5485 33.8541 35.7283 33.2614 35.7283 32.6552C35.7245 31.8434 35.4003 31.0659 34.8262 30.4919C34.2522 29.9179 33.4748 29.5937 32.663 29.5898ZM32.663 34.2538C32.3468 34.2538 32.0377 34.1601 31.7748 33.9844C31.5119 33.8088 31.307 33.5591 31.186 33.267C31.065 32.9748 31.0334 32.6534 31.095 32.3433C31.1567 32.0332 31.309 31.7483 31.5326 31.5247C31.7561 31.3012 32.041 31.1489 32.3511 31.0872C32.6612 31.0255 32.9827 31.0572 33.2748 31.1782C33.5669 31.2992 33.8166 31.5041 33.9922 31.767C34.1679 32.0299 34.2617 32.339 34.2617 32.6552C34.2605 33.0788 34.0917 33.4848 33.7921 33.7843C33.4926 34.0839 33.0866 34.2527 32.663 34.2538ZM21.6319 20.7783C22.1359 20.4415 22.7286 20.2617 23.3349 20.2617C24.1467 20.2656 24.9241 20.5898 25.4981 21.1638C26.0722 21.7378 26.3963 22.5153 26.4002 23.3271C26.4002 23.9333 26.2204 24.526 25.8836 25.0301C25.5468 25.5341 25.068 25.927 24.5079 26.159C23.9478 26.3911 23.3315 26.4518 22.7368 26.3335C22.1422 26.2152 21.596 25.9233 21.1673 25.4946C20.7387 25.0659 20.4467 24.5197 20.3284 23.9251C20.2102 23.3305 20.2709 22.7141 20.5029 22.154C20.7349 21.5939 21.1278 21.1151 21.6319 20.7783ZM22.4467 24.6563C22.7096 24.832 23.0187 24.9257 23.3349 24.9257C23.7585 24.9246 24.1645 24.7558 24.464 24.4562C24.7636 24.1566 24.9324 23.7507 24.9335 23.3271C24.9335 23.0109 24.8398 22.7018 24.6641 22.4389C24.4884 22.176 24.2388 21.9711 23.9466 21.8501C23.6545 21.7291 23.3331 21.6974 23.023 21.7591C22.7129 21.8208 22.428 21.973 22.2044 22.1966C21.9809 22.4202 21.8286 22.7051 21.7669 23.0152C21.7052 23.3253 21.7369 23.6467 21.8579 23.9388C21.9789 24.231 22.1838 24.4806 22.4467 24.6563Z" fill="white"/>
</svg>
