<svg width="14" height="17" viewBox="0 0 14 17" fill="none" xmlns="http://www.w3.org/2000/svg">
<path fill-rule="evenodd" clip-rule="evenodd" d="M7 4.14374e-06C5.88224 -0.00149524 4.8016 0.403958 3.95718 1.14166C3.11276 1.87936 2.56146 2.89961 2.40484 4.01443C2.24823 5.12924 2.49686 6.26352 3.10492 7.20826C3.71298 8.15301 4.63951 8.84457 5.71379 9.15553C4.18721 9.34228 2.87799 9.88576 1.89096 10.8658C0.635434 12.1112 0 13.967 0 16.3883C0 16.5505 0.0639837 16.7061 0.177876 16.8208C0.291768 16.9355 0.446238 17 0.607306 17C0.768373 17 0.922844 16.9355 1.03674 16.8208C1.15063 16.7061 1.21461 16.5505 1.21461 16.3883C1.21461 14.1731 1.79379 12.6792 2.74374 11.7364C3.69498 10.7924 5.11671 10.303 7 10.303C8.88329 10.303 10.305 10.7924 11.2575 11.7364C12.2062 12.6805 12.7854 14.1731 12.7854 16.3883C12.7854 16.5505 12.8494 16.7061 12.9633 16.8208C13.0772 16.9355 13.2316 17 13.3927 17C13.5538 17 13.7082 16.9355 13.8221 16.8208C13.936 16.7061 14 16.5505 14 16.3883C14 13.967 13.3646 12.1125 12.1078 10.8658C11.1233 9.88705 9.81278 9.34228 8.28621 9.15553C9.3569 8.84107 10.2792 8.14845 10.8841 7.20462C11.489 6.26078 11.736 5.12897 11.5797 4.01663C11.4234 2.90429 10.8744 1.88593 10.0333 1.14822C9.19216 0.410513 8.11527 0.00286777 7 4.14374e-06ZM3.57991 4.66856C3.57991 3.75487 3.94024 2.8786 4.58163 2.23253C5.22302 1.58645 6.09293 1.22349 7 1.22349C7.90706 1.22349 8.77698 1.58645 9.41837 2.23253C10.0598 2.8786 10.4201 3.75487 10.4201 4.66856C10.4201 5.58225 10.0598 6.45852 9.41837 7.1046C8.77698 7.75068 7.90706 8.11364 7 8.11364C6.09293 8.11364 5.22302 7.75068 4.58163 7.1046C3.94024 6.45852 3.57991 5.58225 3.57991 4.66856Z" fill="#676767"/>
</svg>
